<?xml version="1.0" encoding="UTF-8"?>
<svg width="309px" height="465px" viewBox="0 0 309 465" version="1.1" xmlns="http://www.w3.org/2000/svg" xmlns:xlink="http://www.w3.org/1999/xlink">
    <!-- Generator: Sketch 41.2 (35397) - http://www.bohemiancoding.com/sketch -->
    <title>noposteravailable</title>
    <desc>Created with Sketch.</desc>
    <defs>
        <linearGradient x1="0%" y1="33.6364862%" x2="100%" y2="83.6944782%" id="linearGradient-1">
            <stop stop-color="#3865FF" offset="0%"></stop>
            <stop stop-color="#746DFF" offset="100%"></stop>
        </linearGradient>
    </defs>
    <g id="Page-1" stroke="none" stroke-width="1" fill="none" fill-rule="evenodd">
        <g id="noposteravailable">
            <rect id="Rectangle-4" fill="url(#linearGradient-1)" x="0" y="0" width="309" height="465"></rect>
            <path d="M187.747262,172.734308 L187.747262,172.734308 C184.490324,167.737895 177.797317,166.326211 172.797962,169.581232 L172.797962,169.581232 C167.964304,172.72834 161.493079,171.363473 158.344118,166.532589 L153.76743,159.511609 C147.98295,150.63763 136.095603,148.130401 127.2164,153.911477 L127.2164,153.911549 C118.337196,159.692625 115.82842,171.572978 121.612971,180.446957 L121.612971,180.446957 C127.397522,189.320936 139.284869,191.828236 148.164073,186.047088 L155.189186,181.473094 C160.022844,178.325986 166.494069,179.690852 169.64303,184.521737 L169.64303,184.521737 C172.899968,189.518079 179.592976,190.929763 184.59233,187.674812 L184.59233,187.674812 C189.591685,184.419791 191.0042,177.730721 187.747262,172.734308" id="Fill-1" fill-opacity="0.799999952" fill="#FFFFFF"></path>
            <path d="M91.48,216.48 L91.48,243.36 L89.68,243.36 L74.4,227.04 L74.4,242.88 L69,242.88 L69,216 L70.76,216 L86.08,232.2 L86.08,216.48 L91.48,216.48 Z M105.512,222.64 C108.445348,222.64 110.95199,223.626657 113.032,225.6 C115.112011,227.60001 116.152,230.053319 116.152,232.96 C116.152,235.866681 115.112011,238.31999 113.032,240.32 C110.95199,242.32001 108.432015,243.32 105.472,243.32 C102.511986,243.32 100.018677,242.32001 97.9920004,240.32 C95.9386568,238.346657 94.9120004,235.893348 94.9120004,232.96 C94.9120004,230.053319 95.9386568,227.60001 97.9920004,225.6 C100.045344,223.626657 102.551986,222.64 105.512,222.64 Z M105.512,227.56 C104.01866,227.56 102.792005,228.066662 101.832,229.08 C100.871996,230.120005 100.392,231.426659 100.392,233 C100.392,234.573341 100.871996,235.853328 101.832,236.84 C102.792005,237.853338 104.01866,238.36 105.512,238.36 C106.978674,238.36 108.205329,237.853338 109.192,236.84 C110.152005,235.826662 110.632,234.546674 110.632,233 C110.632,231.453326 110.152005,230.160005 109.192,229.12 C108.205329,228.079995 106.978674,227.56 105.512,227.56 Z M139.976001,216.48 C142.776015,216.48 145.069326,217.253326 146.856001,218.8 C148.61601,220.373341 149.496001,222.439987 149.496001,225 C149.496001,227.533346 148.61601,229.586659 146.856001,231.16 C145.069326,232.760008 142.776015,233.56 139.976001,233.56 L135.456001,233.56 L135.456001,242.88 L130.056001,242.88 L130.056001,216.48 L139.976001,216.48 Z M135.456001,221.24 L135.456001,228.84 L139.976001,228.84 C141.229341,228.84 142.215998,228.480004 142.936001,227.76 C143.629338,227.066663 143.976001,226.146672 143.976001,225 C143.976001,223.879994 143.616005,222.973337 142.896001,222.28 C142.175998,221.586663 141.202674,221.24 139.976001,221.24 L135.456001,221.24 Z M161.568002,222.64 C164.50135,222.64 167.007991,223.626657 169.088002,225.6 C171.168012,227.60001 172.208002,230.053319 172.208002,232.96 C172.208002,235.866681 171.168012,238.31999 169.088002,240.32 C167.007991,242.32001 164.488016,243.32 161.528002,243.32 C158.567987,243.32 156.074678,242.32001 154.048002,240.32 C151.994658,238.346657 150.968002,235.893348 150.968002,232.96 C150.968002,230.053319 151.994658,227.60001 154.048002,225.6 C156.101345,223.626657 158.607987,222.64 161.568002,222.64 Z M161.568002,227.56 C160.074661,227.56 158.848006,228.066662 157.888002,229.08 C156.927997,230.120005 156.448002,231.426659 156.448002,233 C156.448002,234.573341 156.927997,235.853328 157.888002,236.84 C158.848006,237.853338 160.074661,238.36 161.568002,238.36 C163.034676,238.36 164.26133,237.853338 165.248002,236.84 C166.208006,235.826662 166.688002,234.546674 166.688002,233 C166.688002,231.453326 166.208006,230.160005 165.248002,229.12 C164.26133,228.079995 163.034676,227.56 161.568002,227.56 Z M182.200002,222.6 C185.160017,222.6 187.533326,223.59999 189.320002,225.6 L186.600002,228.92 C185.266662,227.66666 183.786677,227.04 182.160002,227.04 C180.746662,227.04 180.040002,227.506662 180.040002,228.44 C180.040002,228.813335 180.2,229.119999 180.520002,229.36 C180.813337,229.626668 181.346665,229.906665 182.120002,230.2 L184.040002,231 C185.960012,231.773337 187.373331,232.599996 188.280002,233.48 C189.160006,234.386671 189.600002,235.573326 189.600002,237.04 C189.600002,239.013343 188.880009,240.559994 187.440002,241.68 C185.973328,242.800006 184.120013,243.36 181.880002,243.36 C178.359984,243.36 175.626678,242.080013 173.680002,239.52 L176.400002,236.24 C178.133344,238.026676 179.986659,238.92 181.960002,238.92 C182.680006,238.92 183.28,238.773335 183.760002,238.48 C184.240004,238.213332 184.480002,237.813336 184.480002,237.28 C184.480002,236.853331 184.333337,236.520001 184.040002,236.28 C183.72,236.066666 183.186672,235.800002 182.440002,235.48 L180.320002,234.6 C178.50666,233.85333 177.160006,233.026671 176.280002,232.12 C175.373331,231.213329 174.920002,230.026674 174.920002,228.56 C174.920002,226.693324 175.599995,225.226672 176.960002,224.16 C178.293342,223.119995 180.039991,222.6 182.200002,222.6 Z M202.912002,238.52 C203.232004,238.52 204.085329,238.466667 205.472002,238.36 L205.472002,242.88 C204.191996,243.200002 202.952008,243.36 201.752002,243.36 C199.245323,243.36 197.298676,242.73334 195.912002,241.48 C194.525329,240.253327 193.832002,238.400012 193.832002,235.92 L193.832002,227.64 L190.712002,227.64 L190.712002,223.08 L193.832002,223.08 L193.832002,218.08 L199.232002,218.08 L199.232002,223.08 L204.832002,223.08 L204.832002,227.64 L199.232002,227.64 L199.232002,235.44 C199.232002,236.560006 199.525333,237.346664 200.112002,237.8 C200.698672,238.280002 201.631996,238.52 202.912002,238.52 Z M226.624003,231.84 C226.624003,232.800005 226.504004,233.786662 226.264003,234.8 L212.344003,234.8 C212.690671,236.05334 213.357331,237.01333 214.344003,237.68 C215.304007,238.373337 216.503995,238.72 217.944003,238.72 C219.890679,238.72 221.730661,238.05334 223.464003,236.72 L225.704003,240.4 C223.357324,242.373343 220.717351,243.36 217.784003,243.36 C214.663987,243.36 212.077346,242.36001 210.024003,240.36 C207.970659,238.386657 206.944003,235.933348 206.944003,233 C206.944003,230.093319 207.943993,227.64001 209.944003,225.64 C211.917346,223.63999 214.370655,222.64 217.304003,222.64 C220.050683,222.64 222.290661,223.519991 224.024003,225.28 C225.757345,227.040009 226.624003,229.226654 226.624003,231.84 Z M217.104003,227 C215.95733,227 214.95734,227.359996 214.104003,228.08 C213.250665,228.800004 212.664004,229.773327 212.344003,231 L221.384003,231 C221.357336,229.773327 220.930673,228.800004 220.104003,228.08 C219.277332,227.359996 218.277342,227 217.104003,227 Z M240.296003,222.84 C240.962673,222.84 241.549334,222.919999 242.056003,223.08 L242.056003,227.84 L240.616003,227.84 C238.989328,227.84 237.696008,228.266662 236.736003,229.12 C235.775998,230.000004 235.296003,231.293325 235.296003,233 L235.296003,242.88 L229.896003,242.88 L229.896003,223.08 L234.856003,223.08 L234.856003,225.48 C236.21601,223.719991 238.029325,222.84 240.296003,222.84 Z M91.96,279.44 L81.16,279.44 L79.68,282.88 L73.88,282.88 L85.68,256 L87.48,256 L99.24,282.88 L93.44,282.88 L91.96,279.44 Z M86.56,266.12 L83.08,275 L90.04,275 L86.56,266.12 Z M118.352,263.08 L108.552,283.36 L106.752,283.36 L96.9520004,263.08 L102.632,263.08 L107.632,274.32 L112.632,263.08 L118.352,263.08 Z M127.904001,262.64 C130.49068,262.64 132.557326,263.359993 134.104001,264.8 C135.624008,266.266674 136.384001,268.37332 136.384001,271.12 L136.384001,282.88 L131.424001,282.88 L131.424001,280.96 C129.903993,282.560008 127.89068,283.36 125.384001,283.36 C123.277324,283.36 121.610674,282.800006 120.384001,281.68 C119.157328,280.586661 118.544001,279.173342 118.544001,277.44 C118.544001,275.653324 119.223994,274.240005 120.584001,273.2 C121.917341,272.186662 123.730656,271.68 126.024001,271.68 L130.984001,271.68 L130.984001,270.8 C130.984001,269.706661 130.677337,268.853336 130.064001,268.24 C129.423998,267.626664 128.504007,267.32 127.304001,267.32 C125.543992,267.32 123.797343,268.226658 122.064001,270.04 L119.264001,266.72 C121.557346,263.999986 124.437317,262.64 127.904001,262.64 Z M126.824001,279.4 C127.99734,279.4 128.983997,279.02667 129.784001,278.28 C130.584005,277.559996 130.984001,276.626672 130.984001,275.48 L130.984001,275.24 L126.744001,275.24 C124.903992,275.24 123.984001,275.90666 123.984001,277.24 C123.984001,277.90667 124.250665,278.426665 124.784001,278.8 C125.29067,279.200002 125.970663,279.4 126.824001,279.4 Z M143.336001,252.52 C144.296006,252.52 145.122664,252.839997 145.816001,253.48 C146.482671,254.120003 146.816001,254.919995 146.816001,255.88 C146.816001,256.813338 146.482671,257.599997 145.816001,258.24 C145.122664,258.880003 144.296006,259.2 143.336001,259.2 C142.375996,259.2 141.562671,258.880003 140.896001,258.24 C140.229331,257.599997 139.896001,256.813338 139.896001,255.88 C139.896001,254.919995 140.229331,254.120003 140.896001,253.48 C141.562671,252.839997 142.375996,252.52 143.336001,252.52 Z M146.056001,282.88 L140.656001,282.88 L140.656001,263.08 L146.056001,263.08 L146.056001,282.88 Z M155.888002,282.88 L150.488002,282.88 L150.488002,252.88 L155.888002,252.88 L155.888002,282.88 Z M168.440002,262.64 C171.026682,262.64 173.093328,263.359993 174.640002,264.8 C176.16001,266.266674 176.920002,268.37332 176.920002,271.12 L176.920002,282.88 L171.960002,282.88 L171.960002,280.96 C170.439994,282.560008 168.426681,283.36 165.920002,283.36 C163.813325,283.36 162.146675,282.800006 160.920002,281.68 C159.693329,280.586661 159.080002,279.173342 159.080002,277.44 C159.080002,275.653324 159.759995,274.240005 161.120002,273.2 C162.453342,272.186662 164.266657,271.68 166.560002,271.68 L171.520002,271.68 L171.520002,270.8 C171.520002,269.706661 171.213338,268.853336 170.600002,268.24 C169.959999,267.626664 169.040008,267.32 167.840002,267.32 C166.079993,267.32 164.333344,268.226658 162.600002,270.04 L159.800002,266.72 C162.093347,263.999986 164.973318,262.64 168.440002,262.64 Z M167.360002,279.4 C168.533341,279.4 169.519998,279.02667 170.320002,278.28 C171.120006,277.559996 171.520002,276.626672 171.520002,275.48 L171.520002,275.24 L167.280002,275.24 C165.439993,275.24 164.520002,275.90666 164.520002,277.24 C164.520002,277.90667 164.786666,278.426665 165.320002,278.8 C165.826671,279.200002 166.506664,279.4 167.360002,279.4 Z M192.512002,262.64 C195.312016,262.64 197.61866,263.613324 199.432002,265.56 C201.218678,267.533343 202.112002,270.013318 202.112002,273 C202.112002,275.986682 201.218678,278.453324 199.432002,280.4 C197.61866,282.373343 195.312016,283.36 192.512002,283.36 C189.711988,283.36 187.59201,282.373343 186.152002,280.4 L186.152002,282.88 L181.192002,282.88 L181.192002,252.88 L186.592002,252.88 L186.592002,265 C188.005343,263.426659 189.978656,262.64 192.512002,262.64 Z M191.512002,278.44 C192.978676,278.44 194.205331,277.933338 195.192002,276.92 C196.152007,275.933328 196.632002,274.613342 196.632002,272.96 C196.632002,271.333325 196.138674,270.013338 195.152002,269 C194.165331,268.013328 192.95201,267.52 191.512002,267.52 C190.125329,267.52 188.952007,267.986662 187.992002,268.92 C187.005331,269.880005 186.512002,271.239991 186.512002,273 C186.512002,274.786676 187.005331,276.133329 187.992002,277.04 C188.978674,277.973338 190.151996,278.44 191.512002,278.44 Z M210.824003,282.88 L205.424003,282.88 L205.424003,252.88 L210.824003,252.88 L210.824003,282.88 Z M233.816003,271.84 C233.816003,272.800005 233.696004,273.786662 233.456003,274.8 L219.536003,274.8 C219.882671,276.05334 220.549331,277.01333 221.536003,277.68 C222.496008,278.373337 223.695996,278.72 225.136003,278.72 C227.082679,278.72 228.922661,278.05334 230.656003,276.72 L232.896003,280.4 C230.549325,282.373343 227.909351,283.36 224.976003,283.36 C221.855987,283.36 219.269347,282.36001 217.216003,280.36 C215.162659,278.386657 214.136003,275.933348 214.136003,273 C214.136003,270.093319 215.135993,267.64001 217.136003,265.64 C219.109346,263.63999 221.562655,262.64 224.496003,262.64 C227.242683,262.64 229.482661,263.519991 231.216003,265.28 C232.949345,267.040009 233.816003,269.226654 233.816003,271.84 Z M224.296003,267 C223.149331,267 222.149341,267.359996 221.296003,268.08 C220.442665,268.800004 219.856005,269.773327 219.536003,271 L228.576003,271 C228.549336,269.773327 228.122674,268.800004 227.296003,268.08 C226.469332,267.359996 225.469342,267 224.296003,267 Z" id="No-Poster-Available" fill-opacity="0.799999952" fill="#FFFFFF"></path>
        </g>
    </g>
</svg>