<?xml version="1.0" encoding="UTF-8"?>
<svg width="500px" height="500px" viewBox="0 0 500 500" version="1.1" xmlns="http://www.w3.org/2000/svg" xmlns:xlink="http://www.w3.org/1999/xlink">
    <!-- Generator: Sketch 41.2 (35397) - http://www.bohemiancoding.com/sketch -->
    <title>novideoavailable</title>
    <desc>Created with Sketch.</desc>
    <defs>
        <linearGradient x1="0%" y1="33.6364862%" x2="100%" y2="83.6944782%" id="linearGradient-1">
            <stop stop-color="#3865FF" offset="0%"></stop>
            <stop stop-color="#746DFF" offset="100%"></stop>
        </linearGradient>
    </defs>
    <g id="Page-1" stroke="none" stroke-width="1" fill="none" fill-rule="evenodd">
        <g id="novideoavailable">
            <rect id="Rectangle-4" fill="url(#linearGradient-1)" x="0" y="0" width="500" height="500"></rect>
            <path d="M284.247262,185.933938 L284.247262,185.933938 C280.990324,180.937525 274.297317,179.525841 269.297962,182.780863 L269.297962,182.780863 C264.464304,185.927971 257.993079,184.563104 254.844118,179.732219 L250.26743,172.711239 C244.48295,163.83726 232.595603,161.330031 223.7164,167.111108 L223.7164,167.111179 C214.837196,172.892256 212.32842,184.772608 218.112971,193.646587 L218.112971,193.646587 C223.897522,202.520567 235.784869,205.027867 244.664073,199.246719 L251.689186,194.672724 C256.522844,191.525616 262.994069,192.890483 266.14303,197.721367 L266.14303,197.721367 C269.399968,202.717709 276.092976,204.129393 281.09233,200.874443 L281.09233,200.874443 C286.091685,197.619421 287.5042,190.930351 284.247262,185.933938" id="Fill-1" fill-opacity="0.799999952" fill="#FFFFFF"></path>
            <path d="M192.596,229.96 L192.596,256.84 L190.796,256.84 L175.516,240.52 L175.516,256.36 L170.116,256.36 L170.116,229.48 L171.876,229.48 L187.196,245.68 L187.196,229.96 L192.596,229.96 Z M206.628001,236.12 C209.561349,236.12 212.06799,237.106657 214.148001,239.08 C216.228011,241.08001 217.268001,243.533319 217.268001,246.44 C217.268001,249.346681 216.228011,251.79999 214.148001,253.8 C212.06799,255.80001 209.548015,256.8 206.588001,256.8 C203.627986,256.8 201.134677,255.80001 199.108001,253.8 C197.054657,251.826657 196.028001,249.373348 196.028001,246.44 C196.028001,243.533319 197.054657,241.08001 199.108001,239.08 C201.161344,237.106657 203.667986,236.12 206.628001,236.12 Z M206.628001,241.04 C205.13466,241.04 203.908005,241.546662 202.948001,242.56 C201.987996,243.600005 201.508001,244.906659 201.508001,246.48 C201.508001,248.053341 201.987996,249.333328 202.948001,250.32 C203.908005,251.333338 205.13466,251.84 206.628001,251.84 C208.094675,251.84 209.321329,251.333338 210.308001,250.32 C211.268005,249.306662 211.748001,248.026674 211.748001,246.48 C211.748001,244.933326 211.268005,243.640005 210.308001,242.6 C209.321329,241.559995 208.094675,241.04 206.628001,241.04 Z M252.012001,229.96 L240.252001,256.84 L238.452001,256.84 L226.652001,229.96 L232.772001,229.96 L239.372001,245.96 L245.932001,229.96 L252.012001,229.96 Z M257.004002,226 C257.964007,226 258.790665,226.319997 259.484002,226.96 C260.150672,227.600003 260.484002,228.399995 260.484002,229.36 C260.484002,230.293338 260.150672,231.079997 259.484002,231.72 C258.790665,232.360003 257.964007,232.68 257.004002,232.68 C256.043997,232.68 255.230672,232.360003 254.564002,231.72 C253.897332,231.079997 253.564002,230.293338 253.564002,229.36 C253.564002,228.399995 253.897332,227.600003 254.564002,226.96 C255.230672,226.319997 256.043997,226 257.004002,226 Z M259.724002,256.36 L254.324002,256.36 L254.324002,236.56 L259.724002,236.56 L259.724002,256.36 Z M283.956002,226.36 L283.956002,256.36 L278.996002,256.36 L278.996002,253.88 C277.555995,255.853343 275.436016,256.84 272.636002,256.84 C269.835988,256.84 267.542678,255.853343 265.756002,253.88 C263.94266,251.933324 263.036002,249.466682 263.036002,246.48 C263.036002,243.493318 263.94266,241.013343 265.756002,239.04 C267.542678,237.093324 269.835988,236.12 272.636002,236.12 C275.169348,236.12 277.142662,236.906659 278.556002,238.48 L278.556002,226.36 L283.956002,226.36 Z M273.636002,251.92 C274.996009,251.92 276.169331,251.453338 277.156002,250.52 C278.142674,249.613329 278.636002,248.266676 278.636002,246.48 C278.636002,244.719991 278.142674,243.360005 277.156002,242.4 C276.169331,241.466662 274.996009,241 273.636002,241 C272.195995,241 270.982674,241.493328 269.996002,242.48 C269.009331,243.493338 268.516002,244.813325 268.516002,246.44 C268.516002,248.093342 269.009331,249.413328 269.996002,250.4 C270.956007,251.413338 272.169328,251.92 273.636002,251.92 Z M306.948002,245.32 C306.948002,246.280005 306.828004,247.266662 306.588002,248.28 L292.668002,248.28 C293.014671,249.53334 293.681331,250.49333 294.668002,251.16 C295.628007,251.853337 296.827995,252.2 298.268002,252.2 C300.214679,252.2 302.05466,251.53334 303.788002,250.2 L306.028002,253.88 C303.681324,255.853343 301.04135,256.84 298.108002,256.84 C294.987987,256.84 292.401346,255.84001 290.348002,253.84 C288.294659,251.866657 287.268002,249.413348 287.268002,246.48 C287.268002,243.573319 288.267992,241.12001 290.268002,239.12 C292.241346,237.11999 294.694654,236.12 297.628002,236.12 C300.374683,236.12 302.61466,236.999991 304.348002,238.76 C306.081344,240.520009 306.948002,242.706654 306.948002,245.32 Z M297.428002,240.48 C296.28133,240.48 295.28134,240.839996 294.428002,241.56 C293.574665,242.280004 292.988004,243.253327 292.668002,244.48 L301.708002,244.48 C301.681336,243.253327 301.254673,242.280004 300.428002,241.56 C299.601332,240.839996 298.601342,240.48 297.428002,240.48 Z M319.700003,236.12 C322.633351,236.12 325.139992,237.106657 327.220003,239.08 C329.300013,241.08001 330.340003,243.533319 330.340003,246.44 C330.340003,249.346681 329.300013,251.79999 327.220003,253.8 C325.139992,255.80001 322.620018,256.8 319.660003,256.8 C316.699988,256.8 314.20668,255.80001 312.180003,253.8 C310.126659,251.826657 309.100003,249.373348 309.100003,246.44 C309.100003,243.533319 310.126659,241.08001 312.180003,239.08 C314.233346,237.106657 316.739988,236.12 319.700003,236.12 Z M319.700003,241.04 C318.206662,241.04 316.980008,241.546662 316.020003,242.56 C315.059998,243.600005 314.580003,244.906659 314.580003,246.48 C314.580003,248.053341 315.059998,249.333328 316.020003,250.32 C316.980008,251.333338 318.206662,251.84 319.700003,251.84 C321.166677,251.84 322.393331,251.333338 323.380003,250.32 C324.340008,249.306662 324.820003,248.026674 324.820003,246.48 C324.820003,244.933326 324.340008,243.640005 323.380003,242.6 C322.393331,241.559995 321.166677,241.04 319.700003,241.04 Z M187.08,292.92 L176.28,292.92 L174.8,296.36 L169,296.36 L180.8,269.48 L182.6,269.48 L194.36,296.36 L188.56,296.36 L187.08,292.92 Z M181.68,279.6 L178.2,288.48 L185.16,288.48 L181.68,279.6 Z M213.472,276.56 L203.672,296.84 L201.872,296.84 L192.072,276.56 L197.752,276.56 L202.752,287.8 L207.752,276.56 L213.472,276.56 Z M223.024001,276.12 C225.61068,276.12 227.677326,276.839993 229.224001,278.28 C230.744008,279.746674 231.504001,281.85332 231.504001,284.6 L231.504001,296.36 L226.544001,296.36 L226.544001,294.44 C225.023993,296.040008 223.01068,296.84 220.504001,296.84 C218.397324,296.84 216.730674,296.280006 215.504001,295.16 C214.277328,294.066661 213.664001,292.653342 213.664001,290.92 C213.664001,289.133324 214.343994,287.720005 215.704001,286.68 C217.037341,285.666662 218.850656,285.16 221.144001,285.16 L226.104001,285.16 L226.104001,284.28 C226.104001,283.186661 225.797337,282.333336 225.184001,281.72 C224.543998,281.106664 223.624007,280.8 222.424001,280.8 C220.663992,280.8 218.917343,281.706658 217.184001,283.52 L214.384001,280.2 C216.677346,277.479986 219.557317,276.12 223.024001,276.12 Z M221.944001,292.88 C223.11734,292.88 224.103997,292.50667 224.904001,291.76 C225.704005,291.039996 226.104001,290.106672 226.104001,288.96 L226.104001,288.72 L221.864001,288.72 C220.023992,288.72 219.104001,289.38666 219.104001,290.72 C219.104001,291.38667 219.370665,291.906665 219.904001,292.28 C220.41067,292.680002 221.090663,292.88 221.944001,292.88 Z M238.456001,266 C239.416006,266 240.242664,266.319997 240.936001,266.96 C241.602671,267.600003 241.936001,268.399995 241.936001,269.36 C241.936001,270.293338 241.602671,271.079997 240.936001,271.72 C240.242664,272.360003 239.416006,272.68 238.456001,272.68 C237.495996,272.68 236.682671,272.360003 236.016001,271.72 C235.349331,271.079997 235.016001,270.293338 235.016001,269.36 C235.016001,268.399995 235.349331,267.600003 236.016001,266.96 C236.682671,266.319997 237.495996,266 238.456001,266 Z M241.176001,296.36 L235.776001,296.36 L235.776001,276.56 L241.176001,276.56 L241.176001,296.36 Z M251.008002,296.36 L245.608002,296.36 L245.608002,266.36 L251.008002,266.36 L251.008002,296.36 Z M263.560002,276.12 C266.146682,276.12 268.213328,276.839993 269.760002,278.28 C271.28001,279.746674 272.040002,281.85332 272.040002,284.6 L272.040002,296.36 L267.080002,296.36 L267.080002,294.44 C265.559994,296.040008 263.546681,296.84 261.040002,296.84 C258.933325,296.84 257.266675,296.280006 256.040002,295.16 C254.813329,294.066661 254.200002,292.653342 254.200002,290.92 C254.200002,289.133324 254.879995,287.720005 256.240002,286.68 C257.573342,285.666662 259.386657,285.16 261.680002,285.16 L266.640002,285.16 L266.640002,284.28 C266.640002,283.186661 266.333338,282.333336 265.720002,281.72 C265.079999,281.106664 264.160008,280.8 262.960002,280.8 C261.199993,280.8 259.453344,281.706658 257.720002,283.52 L254.920002,280.2 C257.213347,277.479986 260.093318,276.12 263.560002,276.12 Z M262.480002,292.88 C263.653341,292.88 264.639998,292.50667 265.440002,291.76 C266.240006,291.039996 266.640002,290.106672 266.640002,288.96 L266.640002,288.72 L262.400002,288.72 C260.559993,288.72 259.640002,289.38666 259.640002,290.72 C259.640002,291.38667 259.906666,291.906665 260.440002,292.28 C260.946671,292.680002 261.626664,292.88 262.480002,292.88 Z M287.632002,276.12 C290.432016,276.12 292.73866,277.093324 294.552002,279.04 C296.338678,281.013343 297.232002,283.493318 297.232002,286.48 C297.232002,289.466682 296.338678,291.933324 294.552002,293.88 C292.73866,295.853343 290.432016,296.84 287.632002,296.84 C284.831988,296.84 282.71201,295.853343 281.272002,293.88 L281.272002,296.36 L276.312002,296.36 L276.312002,266.36 L281.712002,266.36 L281.712002,278.48 C283.125343,276.906659 285.098656,276.12 287.632002,276.12 Z M286.632002,291.92 C288.098676,291.92 289.325331,291.413338 290.312002,290.4 C291.272007,289.413328 291.752002,288.093342 291.752002,286.44 C291.752002,284.813325 291.258674,283.493338 290.272002,282.48 C289.285331,281.493328 288.07201,281 286.632002,281 C285.245329,281 284.072007,281.466662 283.112002,282.4 C282.125331,283.360005 281.632002,284.719991 281.632002,286.48 C281.632002,288.266676 282.125331,289.613329 283.112002,290.52 C284.098674,291.453338 285.271996,291.92 286.632002,291.92 Z M305.944003,296.36 L300.544003,296.36 L300.544003,266.36 L305.944003,266.36 L305.944003,296.36 Z M328.936003,285.32 C328.936003,286.280005 328.816004,287.266662 328.576003,288.28 L314.656003,288.28 C315.002671,289.53334 315.669331,290.49333 316.656003,291.16 C317.616008,291.853337 318.815996,292.2 320.256003,292.2 C322.202679,292.2 324.042661,291.53334 325.776003,290.2 L328.016003,293.88 C325.669325,295.853343 323.029351,296.84 320.096003,296.84 C316.975987,296.84 314.389347,295.84001 312.336003,293.84 C310.282659,291.866657 309.256003,289.413348 309.256003,286.48 C309.256003,283.573319 310.255993,281.12001 312.256003,279.12 C314.229346,277.11999 316.682655,276.12 319.616003,276.12 C322.362683,276.12 324.602661,276.999991 326.336003,278.76 C328.069345,280.520009 328.936003,282.706654 328.936003,285.32 Z M319.416003,280.48 C318.269331,280.48 317.269341,280.839996 316.416003,281.56 C315.562665,282.280004 314.976005,283.253327 314.656003,284.48 L323.696003,284.48 C323.669336,283.253327 323.242674,282.280004 322.416003,281.56 C321.589332,280.839996 320.589342,280.48 319.416003,280.48 Z" id="No-Video-Available" fill-opacity="0.799999952" fill="#FFFFFF"></path>
        </g>
    </g>
</svg>