<?xml version="1.0" encoding="UTF-8"?>
<svg width="309px" height="465px" viewBox="0 0 309 465" version="1.1" xmlns="http://www.w3.org/2000/svg" xmlns:xlink="http://www.w3.org/1999/xlink">
    <!-- Generator: Sketch 41.2 (35397) - http://www.bohemiancoding.com/sketch -->
    <title>poster_hovered copy</title>
    <desc>Created with Sketch.</desc>
    <defs>
        <linearGradient x1="50%" y1="-51.5845651%" x2="50%" y2="100%" id="linearGradient-1">
            <stop stop-color="#FFFFFF" stop-opacity="0" offset="0%"></stop>
            <stop stop-color="#000000" offset="100%"></stop>
        </linearGradient>
    </defs>
    <g id="Page-1" stroke="none" stroke-width="1" fill="none" fill-rule="evenodd">
        <g id="poster_hovered-copy">
            <rect id="Rectangle-4" fill="url(#linearGradient-1)" x="0" y="0" width="309" height="465"></rect>
            <g id="Group-3" transform="translate(80.000000, 214.000000)">
                <path d="M51.4715995,14.608 C52.0289356,14.608 52.5129308,14.7326654 52.9235995,14.982 C53.3269349,15.2313346 53.642265,15.5649979 53.8695995,15.983 L52.8575995,16.764 C52.4835976,16.2066639 52.0216023,15.928 51.4715995,15.928 C51.2149316,15.928 51.002267,15.9866661 50.8335995,16.104 C50.6575986,16.2286673 50.5695995,16.4046655 50.5695995,16.632 C50.5695995,16.8226676 50.6355988,16.9729994 50.7675995,17.083 C50.8922668,17.2003339 51.108598,17.328666 51.4165995,17.468 L52.2415995,17.831 C52.8502692,18.1023347 53.3012647,18.3993317 53.5945995,18.722 C53.8879343,19.0520016 54.0345995,19.4626642 54.0345995,19.954 C54.0345995,20.6140033 53.7962686,21.141998 53.3195995,21.538 C52.8429305,21.934002 52.2342699,22.132 51.4935995,22.132 C50.8775964,22.132 50.3276019,21.9853348 49.8435995,21.692 C49.3522637,21.4059986 48.9672676,21.0173358 48.6885995,20.526 L49.7115995,19.756 C50.217602,20.4600035 50.8115961,20.812 51.4935995,20.812 C51.8162678,20.812 52.0692653,20.7386674 52.2525995,20.592 C52.4359338,20.452666 52.5275995,20.2583346 52.5275995,20.009 C52.5275995,19.8623326 52.4872666,19.7303339 52.4065995,19.613 C52.3185991,19.5029994 52.2232667,19.418667 52.1205995,19.36 C52.010599,19.301333 51.8382673,19.2170005 51.6035995,19.107 L50.8225995,18.755 C50.25793,18.498332 49.8252677,18.2050016 49.5245995,17.875 C49.216598,17.5449983 49.0625995,17.141669 49.0625995,16.665 C49.0625995,16.0489969 49.2899306,15.5503352 49.7445995,15.169 C50.1992684,14.7949981 50.7749294,14.608 51.4715995,14.608 Z M60.0933996,18.964 C60.0933996,19.2280013 60.0603999,19.4993319 59.9943996,19.778 L56.1663996,19.778 C56.2617334,20.1226684 56.4450649,20.3866657 56.7163996,20.57 C56.9804009,20.7606676 57.3103976,20.856 57.7063996,20.856 C58.2417356,20.856 58.7477305,20.6726685 59.2243996,20.306 L59.8403996,21.318 C59.195063,21.8606694 58.4690703,22.132 57.6623996,22.132 C56.8043953,22.132 56.0930691,21.8570027 55.5283996,21.307 C54.9637301,20.7643306 54.6813996,20.0896707 54.6813996,19.283 C54.6813996,18.4836627 54.9563968,17.8090027 55.5063996,17.259 C56.049069,16.7089972 56.7237289,16.434 57.5303996,16.434 C58.2857367,16.434 58.9017305,16.6759976 59.3783996,17.16 C59.8550686,17.6440024 60.0933996,18.2453297 60.0933996,18.964 Z M57.4753996,17.633 C57.1600647,17.633 56.8850674,17.731999 56.6503996,17.93 C56.4157318,18.128001 56.2544,18.395665 56.1663996,18.733 L58.6523996,18.733 C58.6450662,18.395665 58.5277341,18.128001 58.3003996,17.93 C58.0730651,17.731999 57.7980679,17.633 57.4753996,17.633 Z M66.0971997,18.964 C66.0971997,19.2280013 66.0642,19.4993319 65.9981997,19.778 L62.1701997,19.778 C62.2655335,20.1226684 62.448865,20.3866657 62.7201997,20.57 C62.984201,20.7606676 63.3141977,20.856 63.7101997,20.856 C64.2455357,20.856 64.7515306,20.6726685 65.2281997,20.306 L65.8441997,21.318 C65.1988631,21.8606694 64.4728704,22.132 63.6661997,22.132 C62.8081954,22.132 62.0968692,21.8570027 61.5321997,21.307 C60.9675302,20.7643306 60.6851997,20.0896707 60.6851997,19.283 C60.6851997,18.4836627 60.9601969,17.8090027 61.5101997,17.259 C62.0528691,16.7089972 62.727529,16.434 63.5341997,16.434 C64.2895368,16.434 64.9055306,16.6759976 65.3821997,17.16 C65.8588687,17.6440024 66.0971997,18.2453297 66.0971997,18.964 Z M63.4791997,17.633 C63.1638648,17.633 62.8888675,17.731999 62.6541997,17.93 C62.4195318,18.128001 62.2582001,18.395665 62.1701997,18.733 L64.6561997,18.733 C64.6488663,18.395665 64.5315342,18.128001 64.3041997,17.93 C64.0768652,17.731999 63.801868,17.633 63.4791997,17.633 Z M72.2967999,14.74 C73.4701391,14.74 74.4234629,15.0699967 75.1567999,15.73 C75.8901369,16.3900033 76.2567999,17.2626612 76.2567999,18.348 C76.2567999,19.418672 75.8901369,20.2949966 75.1567999,20.977 C74.4161295,21.6590034 73.4628057,22 72.2967999,22 L69.9207999,22 L69.9207999,14.74 L72.2967999,14.74 Z M71.4057999,16.082 L71.4057999,20.658 L72.2857999,20.658 C73.0191369,20.658 73.6094643,20.4453355 74.0567999,20.02 C74.5041354,19.6019979 74.7277999,19.0446701 74.7277999,18.348 C74.7277999,17.6439965 74.5078021,17.0903353 74.0677999,16.687 C73.6204643,16.2836646 73.0264702,16.082 72.2857999,16.082 L71.4057999,16.082 Z M82.2606,18.964 C82.2606,19.2280013 82.2276003,19.4993319 82.1616,19.778 L78.3336,19.778 C78.4289338,20.1226684 78.6122653,20.3866657 78.8836,20.57 C79.1476013,20.7606676 79.477598,20.856 79.8736,20.856 C80.408936,20.856 80.9149309,20.6726685 81.3916,20.306 L82.0076,21.318 C81.3622634,21.8606694 80.6362707,22.132 79.8296,22.132 C78.9715957,22.132 78.2602694,21.8570027 77.6956,21.307 C77.1309305,20.7643306 76.8486,20.0896707 76.8486,19.283 C76.8486,18.4836627 77.1235972,17.8090027 77.6736,17.259 C78.2162693,16.7089972 78.8909293,16.434 79.6976,16.434 C80.4529371,16.434 81.0689309,16.6759976 81.5456,17.16 C82.022269,17.6440024 82.2606,18.2453297 82.2606,18.964 Z M79.6426,17.633 C79.327265,17.633 79.0522678,17.731999 78.8176,17.93 C78.5829321,18.128001 78.4216004,18.395665 78.3336,18.733 L80.8196,18.733 C80.8122666,18.395665 80.6949344,18.128001 80.4676,17.93 C80.2402655,17.731999 79.9652682,17.633 79.6426,17.633 Z M85.9544,20.801 C86.0424005,20.801 86.2770648,20.7863335 86.6584,20.757 L86.6584,22 C86.3063983,22.0880004 85.9654017,22.132 85.6354,22.132 C84.9460633,22.132 84.4107353,21.9596684 84.0294,21.615 C83.6480648,21.277665 83.4574,20.7680034 83.4574,20.086 L83.4574,17.809 L82.5994,17.809 L82.5994,16.555 L83.4574,16.555 L83.4574,15.18 L84.9424,15.18 L84.9424,16.555 L86.4824,16.555 L86.4824,17.809 L84.9424,17.809 L84.9424,19.954 C84.9424,20.2620015 85.0230659,20.4783327 85.1844,20.603 C85.3457342,20.7350007 85.6023983,20.801 85.9544,20.801 Z M89.7142001,16.434 C90.425537,16.434 90.9938647,16.631998 91.4192001,17.028 C91.8372022,17.4313353 92.0462001,18.0106629 92.0462001,18.766 L92.0462001,22 L90.6822001,22 L90.6822001,21.472 C90.264198,21.9120022 89.7105369,22.132 89.0212001,22.132 C88.4418639,22.132 87.9835352,21.9780015 87.6462001,21.67 C87.3088651,21.3693318 87.1402001,20.980669 87.1402001,20.504 C87.1402001,20.0126642 87.3271983,19.6240014 87.7012001,19.338 C88.0678686,19.0593319 88.5665303,18.92 89.1972001,18.92 L90.5612001,18.92 L90.5612001,18.678 C90.5612001,18.3773318 90.4768676,18.1426675 90.3082001,17.974 C90.1321993,17.8053325 89.8792018,17.721 89.5492001,17.721 C89.0651977,17.721 88.5848692,17.9703308 88.1082001,18.469 L87.3382001,17.556 C87.96887,16.8079963 88.760862,16.434 89.7142001,16.434 Z M89.4172001,21.043 C89.7398684,21.043 90.011199,20.9403344 90.2312001,20.735 C90.4512012,20.536999 90.5612001,20.2803349 90.5612001,19.965 L90.5612001,19.899 L89.3952001,19.899 C88.8891976,19.899 88.6362001,20.0823315 88.6362001,20.449 C88.6362001,20.6323342 88.7095327,20.7753328 88.8562001,20.878 C88.9955342,20.9880005 89.1825323,21.043 89.4172001,21.043 Z M93.9580002,13.651 C94.2220015,13.651 94.4493326,13.7389991 94.6400002,13.915 C94.8233345,14.0910009 94.9150002,14.3109987 94.9150002,14.575 C94.9150002,14.8316679 94.8233345,15.0479991 94.6400002,15.224 C94.4493326,15.4000009 94.2220015,15.488 93.9580002,15.488 C93.6939989,15.488 93.4703345,15.4000009 93.2870002,15.224 C93.103666,15.0479991 93.0120002,14.8316679 93.0120002,14.575 C93.0120002,14.3109987 93.103666,14.0910009 93.2870002,13.915 C93.4703345,13.7389991 93.6939989,13.651 93.9580002,13.651 Z M94.7060002,22 L93.2210002,22 L93.2210002,16.555 L94.7060002,16.555 L94.7060002,22 Z M97.4098003,22 L95.9248003,22 L95.9248003,13.75 L97.4098003,13.75 L97.4098003,22 Z M100.4766,16.423 C101.290604,16.423 101.943265,16.6979972 102.4346,17.248 L101.6866,18.161 C101.319932,17.8163316 100.912936,17.644 100.4656,17.644 C100.076932,17.644 99.8826004,17.772332 99.8826004,18.029 C99.8826004,18.1316672 99.9266,18.2159997 100.0146,18.282 C100.095267,18.3553337 100.241933,18.4323329 100.4546,18.513 L100.9826,18.733 C101.510603,18.9456677 101.899266,19.1729988 102.1486,19.415 C102.390602,19.6643346 102.5116,19.9906646 102.5116,20.394 C102.5116,20.9366694 102.313602,21.3619985 101.9176,21.67 C101.514265,21.9780015 101.004603,22.132 100.3886,22.132 C99.4205956,22.132 98.6689364,21.7800035 98.1336004,21.076 L98.8816004,20.174 C99.3582695,20.6653358 99.867931,20.911 100.4106,20.911 C100.608601,20.911 100.7736,20.8706671 100.9056,20.79 C101.037601,20.7166663 101.1036,20.6066674 101.1036,20.46 C101.1036,20.3426661 101.063267,20.2510003 100.9826,20.185 C100.8946,20.126333 100.747935,20.0530004 100.5426,19.965 L99.9596004,19.723 C99.4609312,19.5176656 99.0906016,19.2903346 98.8486004,19.041 C98.5992658,18.7916654 98.4746004,18.4653353 98.4746004,18.062 C98.4746004,17.5486641 98.6615985,17.1453348 99.0356004,16.852 C99.4022689,16.5659986 99.8825974,16.423 100.4766,16.423 Z" id="See-Details" fill="#FFFFFF"></path>
                <rect id="Rectangle-2" stroke="#FFFFFF" x="0" y="0" width="150" height="37" rx="18.5"></rect>
            </g>
        </g>
    </g>
</svg>