<?xml version="1.0" encoding="UTF-8"?>
<svg width="152px" height="39px" viewBox="0 0 152 39" version="1.1" xmlns="http://www.w3.org/2000/svg" xmlns:xlink="http://www.w3.org/1999/xlink">
    <!-- Generator: Sketch 41.2 (35397) - http://www.bohemiancoding.com/sketch -->
    <title>button_removemovie</title>
    <desc>Created with Sketch.</desc>
    <defs></defs>
    <g id="Page-1" stroke="none" stroke-width="1" fill="none" fill-rule="evenodd">
        <g id="button_removemovie" transform="translate(1.000000, 1.000000)">
            <path d="M36.291,22 L34.41,19.437 L33.321,19.437 L33.321,22 L31.836,22 L31.836,14.74 L34.564,14.74 C35.3340039,14.74 35.9646642,14.9526645 36.456,15.378 C36.9400024,15.8106688 37.182,16.3789965 37.182,17.083 C37.182,17.5450023 37.0683345,17.9519982 36.841,18.304 C36.6136655,18.6633351 36.302002,18.941999 35.906,19.14 L37.963,22 L36.291,22 Z M33.321,18.128 L34.564,18.128 C34.9086684,18.128 35.179999,18.0326676 35.378,17.842 C35.5686676,17.6513324 35.664,17.3983349 35.664,17.083 C35.664,16.7749985 35.565001,16.5256676 35.367,16.335 C35.168999,16.1443324 34.901335,16.049 34.564,16.049 L33.321,16.049 L33.321,18.128 Z M43.4608001,18.964 C43.4608001,19.2280013 43.4278004,19.4993319 43.3618001,19.778 L39.5338001,19.778 C39.6291339,20.1226684 39.8124654,20.3866657 40.0838001,20.57 C40.3478014,20.7606676 40.6777981,20.856 41.0738001,20.856 C41.6091361,20.856 42.115131,20.6726685 42.5918001,20.306 L43.2078001,21.318 C42.5624635,21.8606694 41.8364708,22.132 41.0298001,22.132 C40.1717958,22.132 39.4604696,21.8570027 38.8958001,21.307 C38.3311306,20.7643306 38.0488001,20.0896707 38.0488001,19.283 C38.0488001,18.4836627 38.3237973,17.8090027 38.8738001,17.259 C39.4164695,16.7089972 40.0911294,16.434 40.8978001,16.434 C41.6531372,16.434 42.269131,16.6759976 42.7458001,17.16 C43.2224691,17.6440024 43.4608001,18.2453297 43.4608001,18.964 Z M40.8428001,17.633 C40.5274652,17.633 40.2524679,17.731999 40.0178001,17.93 C39.7831323,18.128001 39.6218005,18.395665 39.5338001,18.733 L42.0198001,18.733 C42.0124667,18.395665 41.8951346,18.128001 41.6678001,17.93 C41.4404656,17.731999 41.1654684,17.633 40.8428001,17.633 Z M50.6966002,16.434 C51.3346034,16.434 51.8369317,16.631998 52.2036002,17.028 C52.5702687,17.4313353 52.7536002,17.9629967 52.7536002,18.623 L52.7536002,22 L51.2686002,22 L51.2686002,18.832 C51.2686002,18.5093317 51.1806011,18.2526676 51.0046002,18.062 C50.8285993,17.8713324 50.593935,17.776 50.3006002,17.776 C50.0072654,17.776 49.7689344,17.8713324 49.5856002,18.062 C49.3949326,18.2526676 49.2996002,18.4983318 49.2996002,18.799 L49.2996002,22 L47.8146002,22 L47.8146002,18.832 C47.8146002,18.5093317 47.7266011,18.2526676 47.5506002,18.062 C47.3745993,17.8713324 47.139935,17.776 46.8466002,17.776 C46.545932,17.776 46.3039344,17.8713324 46.1206002,18.062 C45.9372659,18.2526676 45.8456002,18.5093317 45.8456002,18.832 L45.8456002,22 L44.3606002,22 L44.3606002,16.555 L45.7246002,16.555 L45.7246002,17.039 C46.1132688,16.6356646 46.626597,16.434 47.2646002,16.434 C47.9979372,16.434 48.5369318,16.6943307 48.8816002,17.215 C49.3289358,16.6943307 49.9339297,16.434 50.6966002,16.434 Z M56.5244003,16.434 C57.331071,16.434 58.0203974,16.7053306 58.5924003,17.248 C59.1644031,17.7980027 59.4504003,18.4726627 59.4504003,19.272 C59.4504003,20.0713373 59.1644031,20.7459972 58.5924003,21.296 C58.0203974,21.8460027 57.3274043,22.121 56.5134003,22.121 C55.6993962,22.121 55.0137364,21.8460027 54.4564003,21.296 C53.8917308,20.7533306 53.6094003,20.0786707 53.6094003,19.272 C53.6094003,18.4726627 53.8917308,17.7980027 54.4564003,17.248 C55.0210698,16.7053306 55.7103962,16.434 56.5244003,16.434 Z M56.5244003,17.787 C56.1137316,17.787 55.7764016,17.9263319 55.5124003,18.205 C55.248399,18.4910014 55.1164003,18.8503312 55.1164003,19.283 C55.1164003,19.7156688 55.248399,20.0676653 55.5124003,20.339 C55.7764016,20.6176681 56.1137316,20.757 56.5244003,20.757 C56.9277356,20.757 57.2650656,20.6176681 57.5364003,20.339 C57.8004016,20.0603319 57.9324003,19.7083355 57.9324003,19.283 C57.9324003,18.8576645 57.8004016,18.5020014 57.5364003,18.216 C57.2650656,17.9299986 56.9277356,17.787 56.5244003,17.787 Z M65.4102004,16.555 L62.7152004,22.132 L62.2202004,22.132 L59.5252004,16.555 L61.0872004,16.555 L62.4622004,19.646 L63.8372004,16.555 L65.4102004,16.555 Z M70.9080005,18.964 C70.9080005,19.2280013 70.8750008,19.4993319 70.8090005,19.778 L66.9810005,19.778 C67.0763343,20.1226684 67.2596658,20.3866657 67.5310005,20.57 C67.7950018,20.7606676 68.1249985,20.856 68.5210005,20.856 C69.0563365,20.856 69.5623314,20.6726685 70.0390005,20.306 L70.6550005,21.318 C70.0096639,21.8606694 69.2836712,22.132 68.4770005,22.132 C67.6189962,22.132 66.9076699,21.8570027 66.3430005,21.307 C65.778331,20.7643306 65.4960005,20.0896707 65.4960005,19.283 C65.4960005,18.4836627 65.7709977,17.8090027 66.3210005,17.259 C66.8636698,16.7089972 67.5383298,16.434 68.3450005,16.434 C69.1003376,16.434 69.7163314,16.6759976 70.1930005,17.16 C70.6696695,17.6440024 70.9080005,18.2453297 70.9080005,18.964 Z M68.2900005,17.633 C67.9746655,17.633 67.6996683,17.731999 67.4650005,17.93 C67.2303326,18.128001 67.0690009,18.395665 66.9810005,18.733 L69.4670005,18.733 C69.4596671,18.395665 69.3423349,18.128001 69.1150005,17.93 C68.887666,17.731999 68.6126687,17.633 68.2900005,17.633 Z M79.5056006,16.082 L76.2166006,16.082 L76.2166006,17.897 L78.9116006,17.897 L78.9116006,19.239 L76.2166006,19.239 L76.2166006,22 L74.7316006,22 L74.7316006,14.74 L79.5056006,14.74 L79.5056006,16.082 Z M82.9464007,16.489 C83.129735,16.489 83.2910667,16.5109998 83.4304007,16.555 L83.4304007,17.864 L83.0344007,17.864 C82.5870652,17.864 82.231402,17.9813322 81.9674007,18.216 C81.7033994,18.4580012 81.5714007,18.8136643 81.5714007,19.283 L81.5714007,22 L80.0864007,22 L80.0864007,16.555 L81.4504007,16.555 L81.4504007,17.215 C81.8244026,16.7309976 82.3230643,16.489 82.9464007,16.489 Z M86.5962008,16.434 C87.4028715,16.434 88.092198,16.7053306 88.6642008,17.248 C89.2362037,17.7980027 89.5222008,18.4726627 89.5222008,19.272 C89.5222008,20.0713373 89.2362037,20.7459972 88.6642008,21.296 C88.092198,21.8460027 87.3992049,22.121 86.5852008,22.121 C85.7711967,22.121 85.0855369,21.8460027 84.5282008,21.296 C83.9635313,20.7533306 83.6812008,20.0786707 83.6812008,19.272 C83.6812008,18.4726627 83.9635313,17.7980027 84.5282008,17.248 C85.0928703,16.7053306 85.7821967,16.434 86.5962008,16.434 Z M86.5962008,17.787 C86.1855321,17.787 85.8482021,17.9263319 85.5842008,18.205 C85.3201995,18.4910014 85.1882008,18.8503312 85.1882008,19.283 C85.1882008,19.7156688 85.3201995,20.0676653 85.5842008,20.339 C85.8482021,20.6176681 86.1855321,20.757 86.5962008,20.757 C86.9995362,20.757 87.3368661,20.6176681 87.6082008,20.339 C87.8722021,20.0603319 88.0042008,19.7083355 88.0042008,19.283 C88.0042008,18.8576645 87.8722021,18.5020014 87.6082008,18.216 C87.3368661,17.9299986 86.9995362,17.787 86.5962008,17.787 Z M96.7580009,16.434 C97.3960041,16.434 97.8983324,16.631998 98.2650009,17.028 C98.6316694,17.4313353 98.8150009,17.9629967 98.8150009,18.623 L98.8150009,22 L97.3300009,22 L97.3300009,18.832 C97.3300009,18.5093317 97.2420018,18.2526676 97.0660009,18.062 C96.89,17.8713324 96.6553357,17.776 96.3620009,17.776 C96.0686661,17.776 95.8303352,17.8713324 95.6470009,18.062 C95.4563333,18.2526676 95.3610009,18.4983318 95.3610009,18.799 L95.3610009,22 L93.8760009,22 L93.8760009,18.832 C93.8760009,18.5093317 93.7880018,18.2526676 93.6120009,18.062 C93.436,17.8713324 93.2013357,17.776 92.9080009,17.776 C92.6073327,17.776 92.3653352,17.8713324 92.1820009,18.062 C91.9986667,18.2526676 91.9070009,18.5093317 91.9070009,18.832 L91.9070009,22 L90.4220009,22 L90.4220009,16.555 L91.7860009,16.555 L91.7860009,17.039 C92.1746695,16.6356646 92.6879977,16.434 93.3260009,16.434 C94.0593379,16.434 94.5983325,16.6943307 94.9430009,17.215 C95.3903365,16.6943307 95.9953304,16.434 96.7580009,16.434 Z M104.387601,20.658 L107.566601,20.658 L107.566601,22 L102.902601,22 L102.902601,14.74 L104.387601,14.74 L104.387601,20.658 Z M109.049401,13.651 C109.313403,13.651 109.540734,13.7389991 109.731401,13.915 C109.914735,14.0910009 110.006401,14.3109987 110.006401,14.575 C110.006401,14.8316679 109.914735,15.0479991 109.731401,15.224 C109.540734,15.4000009 109.313403,15.488 109.049401,15.488 C108.7854,15.488 108.561735,15.4000009 108.378401,15.224 C108.195067,15.0479991 108.103401,14.8316679 108.103401,14.575 C108.103401,14.3109987 108.195067,14.0910009 108.378401,13.915 C108.561735,13.7389991 108.7854,13.651 109.049401,13.651 Z M109.797401,22 L108.312401,22 L108.312401,16.555 L109.797401,16.555 L109.797401,22 Z M112.864201,16.423 C113.678205,16.423 114.330865,16.6979972 114.822201,17.248 L114.074201,18.161 C113.707533,17.8163316 113.300537,17.644 112.853201,17.644 C112.464533,17.644 112.270201,17.772332 112.270201,18.029 C112.270201,18.1316672 112.314201,18.2159997 112.402201,18.282 C112.482868,18.3553337 112.629534,18.4323329 112.842201,18.513 L113.370201,18.733 C113.898204,18.9456677 114.286867,19.1729988 114.536201,19.415 C114.778202,19.6643346 114.899201,19.9906646 114.899201,20.394 C114.899201,20.9366694 114.701203,21.3619985 114.305201,21.67 C113.901866,21.9780015 113.392204,22.132 112.776201,22.132 C111.808196,22.132 111.056537,21.7800035 110.521201,21.076 L111.269201,20.174 C111.74587,20.6653358 112.255532,20.911 112.798201,20.911 C112.996202,20.911 113.161201,20.8706671 113.293201,20.79 C113.425202,20.7166663 113.491201,20.6066674 113.491201,20.46 C113.491201,20.3426661 113.450868,20.2510003 113.370201,20.185 C113.282201,20.126333 113.135536,20.0530004 112.930201,19.965 L112.347201,19.723 C111.848532,19.5176656 111.478202,19.2903346 111.236201,19.041 C110.986867,18.7916654 110.862201,18.4653353 110.862201,18.062 C110.862201,17.5486641 111.049199,17.1453348 111.423201,16.852 C111.78987,16.5659986 112.270198,16.423 112.864201,16.423 Z M118.560001,20.801 C118.648002,20.801 118.882666,20.7863335 119.264001,20.757 L119.264001,22 C118.912,22.0880004 118.571003,22.132 118.241001,22.132 C117.551665,22.132 117.016337,21.9596684 116.635001,21.615 C116.253666,21.277665 116.063001,20.7680034 116.063001,20.086 L116.063001,17.809 L115.205001,17.809 L115.205001,16.555 L116.063001,16.555 L116.063001,15.18 L117.548001,15.18 L117.548001,16.555 L119.088001,16.555 L119.088001,17.809 L117.548001,17.809 L117.548001,19.954 C117.548001,20.2620015 117.628667,20.4783327 117.790001,20.603 C117.951336,20.7350007 118.208,20.801 118.560001,20.801 Z" id="Remove-From-List" fill="#FFFFFF"></path>
            <rect id="Rectangle-2" stroke="#FFFFFF" x="0" y="0" width="150" height="37" rx="18.5"></rect>
        </g>
    </g>
</svg>