<?xml version="1.0" encoding="UTF-8"?>
<svg width="77px" height="39px" viewBox="0 0 77 39" version="1.1" xmlns="http://www.w3.org/2000/svg" xmlns:xlink="http://www.w3.org/1999/xlink">
    <!-- Generator: Sketch 41.2 (35397) - http://www.bohemiancoding.com/sketch -->
    <title>button_add_active</title>
    <desc>Created with Sketch.</desc>
    <defs></defs>
    <g id="Page-1" stroke="none" stroke-width="1" fill="none" fill-rule="evenodd">
        <g id="button_add_active" transform="translate(1.000000, 1.000000)">
            <rect id="Rectangle-2" stroke="#4A4A4A" fill="#4A4A4A" x="0" y="0" width="75" height="37" rx="18.5"></rect>
            <path d="M31.3816622,21.7708385 L27.7267987,21.7708385 L27.225947,22.9349802 L25.2631499,22.9349802 L29.2564268,13.838431 L29.8655707,13.838431 L33.845311,22.9349802 L31.8825139,22.9349802 L31.3816622,21.7708385 Z M29.5542305,17.2631735 L28.3765522,20.2682835 L30.7319087,20.2682835 L29.5542305,17.2631735 Z M41.1929405,12.7825815 L41.1929405,22.9349802 L39.5144106,22.9349802 L39.5144106,22.0957153 C39.027093,22.7635208 38.309664,23.0974186 37.362102,23.0974186 C36.4145401,23.0974186 35.6384534,22.7635208 35.0338186,22.0957153 C34.4201594,21.4369341 34.1133344,20.6021897 34.1133344,19.5914569 C34.1133344,18.5807242 34.4201594,17.7414676 35.0338186,17.073662 C35.6384534,16.4148809 36.4145401,16.0854952 37.362102,16.0854952 C38.21942,16.0854952 38.8872156,16.351711 39.3655087,16.8841506 L39.3655087,12.7825815 L41.1929405,12.7825815 Z M37.7005153,21.4324252 C38.1607597,21.4324252 38.5578273,21.2745006 38.8917301,20.9586466 C39.2256329,20.651817 39.3925818,20.1960917 39.3925818,19.5914569 C39.3925818,18.9958465 39.2256329,18.5356091 38.8917301,18.2107307 C38.5578273,17.8948767 38.1607597,17.7369521 37.7005153,17.7369521 C37.2131978,17.7369521 36.8025937,17.903901 36.468691,18.2378038 C36.1347882,18.5807309 35.9678393,19.027432 35.9678393,19.5779204 C35.9678393,20.1374332 36.1347882,20.5841342 36.468691,20.918037 C36.7935693,21.2609642 37.2041734,21.4324252 37.7005153,21.4324252 Z M49.3933715,12.7825815 L49.3933715,22.9349802 L47.7148416,22.9349802 L47.7148416,22.0957153 C47.227524,22.7635208 46.510095,23.0974186 45.562533,23.0974186 C44.6149711,23.0974186 43.8388844,22.7635208 43.2342496,22.0957153 C42.6205904,21.4369341 42.3137654,20.6021897 42.3137654,19.5914569 C42.3137654,18.5807242 42.6205904,17.7414676 43.2342496,17.073662 C43.8388844,16.4148809 44.6149711,16.0854952 45.562533,16.0854952 C46.419851,16.0854952 47.0876466,16.351711 47.5659397,16.8841506 L47.5659397,12.7825815 L49.3933715,12.7825815 Z M45.9009463,21.4324252 C46.3611907,21.4324252 46.7582583,21.2745006 47.0921611,20.9586466 C47.4260639,20.651817 47.5930128,20.1960917 47.5930128,19.5914569 C47.5930128,18.9958465 47.4260639,18.5356091 47.0921611,18.2107307 C46.7582583,17.8948767 46.3611907,17.7369521 45.9009463,17.7369521 C45.4136288,17.7369521 45.0030247,17.903901 44.669122,18.2378038 C44.3352192,18.5807309 44.1682703,19.027432 44.1682703,19.5779204 C44.1682703,20.1374332 44.3352192,20.5841342 44.669122,20.918037 C44.9940003,21.2609642 45.4046044,21.4324252 45.9009463,21.4324252 Z" id="Add" fill="#FFFFFF"></path>
        </g>
    </g>
</svg>