<?xml version="1.0" encoding="UTF-8"?>
<svg width="123px" height="20px" viewBox="0 0 123 20" version="1.1" xmlns="http://www.w3.org/2000/svg" xmlns:xlink="http://www.w3.org/1999/xlink">
    <!-- Generator: Sketch 41.2 (35397) - http://www.bohemiancoding.com/sketch -->
    <title>button_friends</title>
    <desc>Created with Sketch.</desc>
    <defs></defs>
    <g id="Page-1" stroke="none" stroke-width="1" fill="none" fill-rule="evenodd">
        <g id="Homepage-V2" transform="translate(-42.000000, -333.000000)">
            <g id="button_friends" transform="translate(43.000000, 334.000000)">
                <rect id="Rectangle-4-Copy-4" stroke-opacity="0.01" stroke="#FFFFFF" x="0" y="0" width="121" height="18"></rect>
                <path d="M38.1,6.62 L35.11,6.62 L35.11,8.27 L37.56,8.27 L37.56,9.49 L35.11,9.49 L35.11,12 L33.76,12 L33.76,5.4 L38.1,5.4 L38.1,6.62 Z M41.2280001,6.99 C41.3946676,6.99 41.5413328,7.0099998 41.6680001,7.05 L41.6680001,8.24 L41.3080001,8.24 C40.9013314,8.24 40.5780013,8.3466656 40.3380001,8.56 C40.0979989,8.7800011 39.9780001,9.1033312 39.9780001,9.53 L39.9780001,12 L38.6280001,12 L38.6280001,7.05 L39.8680001,7.05 L39.8680001,7.65 C40.2080018,7.2099978 40.6613306,6.99 41.2280001,6.99 Z M42.9460002,4.41 C43.1860014,4.41 43.392666,4.4899992 43.5660002,4.65 C43.7326677,4.8100008 43.8160002,5.0099988 43.8160002,5.25 C43.8160002,5.4833345 43.7326677,5.6799992 43.5660002,5.84 C43.392666,6.0000008 43.1860014,6.08 42.9460002,6.08 C42.705999,6.08 42.5026677,6.0000008 42.3360002,5.84 C42.1693327,5.6799992 42.0860002,5.4833345 42.0860002,5.25 C42.0860002,5.0099988 42.1693327,4.8100008 42.3360002,4.65 C42.5026677,4.4899992 42.705999,4.41 42.9460002,4.41 Z M43.6260002,12 L42.2760002,12 L42.2760002,7.05 L43.6260002,7.05 L43.6260002,12 Z M49.3740002,9.24 C49.3740002,9.4800012 49.3440005,9.7266654 49.2840002,9.98 L45.8040002,9.98 C45.8906673,10.2933349 46.0573323,10.5333325 46.3040002,10.7 C46.5440014,10.8733342 46.8439984,10.96 47.2040002,10.96 C47.6906693,10.96 48.1506647,10.793335 48.5840002,10.46 L49.1440002,11.38 C48.5573306,11.8733358 47.8973372,12.12 47.1640002,12.12 C46.3839963,12.12 45.7373361,11.8700025 45.2240002,11.37 C44.7106643,10.8766642 44.4540002,10.263337 44.4540002,9.53 C44.4540002,8.8033297 44.7039977,8.1900025 45.2040002,7.69 C45.697336,7.1899975 46.3106632,6.94 47.0440002,6.94 C47.7306703,6.94 48.2906647,7.1599978 48.7240002,7.6 C49.1573357,8.0400022 49.3740002,8.5866634 49.3740002,9.24 Z M46.9940002,8.03 C46.7073321,8.03 46.4573346,8.1199991 46.2440002,8.3 C46.0306658,8.4800009 45.8840006,8.7233318 45.8040002,9.03 L48.0640002,9.03 C48.0573335,8.7233318 47.9506679,8.4800009 47.7440002,8.3 C47.5373325,8.1199991 47.287335,8.03 46.9940002,8.03 Z M52.8820003,6.94 C53.4553365,6.94 53.9086653,7.1199982 54.2420003,7.48 C54.5753353,7.8466685 54.7420003,8.329997 54.7420003,8.93 L54.7420003,12 L53.4020003,12 L53.4020003,9.11 C53.4020003,8.8233319 53.3186678,8.5900009 53.1520003,8.41 C52.9786661,8.2366658 52.755335,8.15 52.4820003,8.15 C52.2086656,8.15 51.9853345,8.2366658 51.8120003,8.41 C51.6319994,8.5900009 51.5420003,8.8233319 51.5420003,9.11 L51.5420003,12 L50.1920003,12 L50.1920003,7.05 L51.4320003,7.05 L51.4320003,7.5 C51.8053355,7.1266648 52.288664,6.94 52.8820003,6.94 Z M60.7600004,4.5 L60.7600004,12 L59.5200004,12 L59.5200004,11.38 C59.1599986,11.8733358 58.6300039,12.12 57.9300004,12.12 C57.2299969,12.12 56.6566693,11.8733358 56.2100004,11.38 C55.7566648,10.8933309 55.5300004,10.2766704 55.5300004,9.53 C55.5300004,8.7833296 55.7566648,8.1633358 56.2100004,7.67 C56.6566693,7.1833309 57.2299969,6.94 57.9300004,6.94 C58.5633369,6.94 59.0566653,7.1366647 59.4100004,7.53 L59.4100004,4.5 L60.7600004,4.5 Z M58.1800004,10.89 C58.5200021,10.89 58.8133325,10.7733345 59.0600004,10.54 C59.3066683,10.3133322 59.4300004,9.9766689 59.4300004,9.53 C59.4300004,9.0899978 59.3066683,8.7500012 59.0600004,8.51 C58.8133325,8.2766655 58.5200021,8.16 58.1800004,8.16 C57.8199986,8.16 57.5166683,8.2833321 57.2700004,8.53 C57.0233325,8.7833346 56.9000004,9.1133313 56.9000004,9.52 C56.9000004,9.9333354 57.0233325,10.2633321 57.2700004,10.51 C57.5100016,10.7633346 57.8133319,10.89 58.1800004,10.89 Z M63.5480005,6.93 C64.2880042,6.93 64.8813316,7.1799975 65.3280005,7.68 L64.6480005,8.51 C64.3146655,8.1966651 63.9446692,8.04 63.5380005,8.04 C63.1846654,8.04 63.0080005,8.1566655 63.0080005,8.39 C63.0080005,8.4833338 63.0480001,8.5599997 63.1280005,8.62 C63.2013342,8.686667 63.3346662,8.7566663 63.5280005,8.83 L64.0080005,9.03 C64.4880029,9.2233343 64.8413327,9.4299989 65.0680005,9.65 C65.2880016,9.8766678 65.3980005,10.1733315 65.3980005,10.54 C65.3980005,11.0333358 65.2180023,11.4199986 64.8580005,11.7 C64.491332,11.9800014 64.0280033,12.12 63.4680005,12.12 C62.5879961,12.12 61.9046696,11.8000032 61.4180005,11.16 L62.0980005,10.34 C62.531336,10.7866689 62.9946647,11.01 63.4880005,11.01 C63.6680014,11.01 63.8179999,10.9733337 63.9380005,10.9 C64.0580011,10.833333 64.1180005,10.733334 64.1180005,10.6 C64.1180005,10.4933328 64.0813342,10.4100003 64.0080005,10.35 C63.9280001,10.2966664 63.7946681,10.2300004 63.6080005,10.15 L63.0780005,9.93 C62.6246649,9.7433324 62.2880016,9.5366678 62.0680005,9.31 C61.8413327,9.0833322 61.7280005,8.7866685 61.7280005,8.42 C61.7280005,7.953331 61.8979988,7.586668 62.2380005,7.32 C62.5713355,7.0599987 63.0079978,6.93 63.5480005,6.93 Z" id="Friends" fill="#FFFFFF"></path>
                <path d="M13.2198131,2.68081277 C10.6125121,2.68081277 8.49940546,4.74273567 8.49940546,7.28688247 C8.49940546,4.74273567 6.38529636,2.68081277 3.77799538,2.68081277 C3.7519324,2.68081277 3.72586941,2.68081277 3.69980643,2.68179091 C0.276533518,2.73558871 -1.23612207,7.00126506 1.18472832,9.36347749 L8.49940546,16.5 L15.8130802,9.36347749 C18.2339306,7.00126506 16.721275,2.73558871 13.2980021,2.68179091 C13.2719391,2.68081277 13.2458761,2.68081277 13.2198131,2.68081277 Z" id="Page-1" stroke="#FFFFFF"></path>
            </g>
        </g>
    </g>
</svg>