<?xml version="1.0" encoding="UTF-8"?>
<svg width="77px" height="39px" viewBox="0 0 77 39" version="1.1" xmlns="http://www.w3.org/2000/svg" xmlns:xlink="http://www.w3.org/1999/xlink">
    <!-- Generator: Sketch 41.2 (35397) - http://www.bohemiancoding.com/sketch -->
    <title>button_save_active</title>
    <desc>Created with Sketch.</desc>
    <defs>
        <linearGradient x1="0%" y1="33.6364862%" x2="100%" y2="83.6944782%" id="linearGradient-1">
            <stop stop-color="#3865FF" offset="0%"></stop>
            <stop stop-color="#746DFF" offset="100%"></stop>
        </linearGradient>
    </defs>
    <g id="Page-1" stroke="none" stroke-width="1" fill="none" fill-rule="evenodd">
        <g id="button_save_active" transform="translate(1.000000, 1.000000)">
            <rect id="Rectangle-2" stroke="url(#linearGradient-1)" x="0" y="0" width="75" height="37" rx="18.5"></rect>
            <path d="M29.5673998,14.608 C30.1247359,14.608 30.6087311,14.7326654 31.0193998,14.982 C31.4227352,15.2313346 31.7380653,15.5649979 31.9653998,15.983 L30.9533998,16.764 C30.5793979,16.2066639 30.1174026,15.928 29.5673998,15.928 C29.3107319,15.928 29.0980673,15.9866661 28.9293998,16.104 C28.7533989,16.2286673 28.6653998,16.4046655 28.6653998,16.632 C28.6653998,16.8226676 28.7313992,16.9729995 28.8633998,17.083 C28.9880671,17.2003339 29.2043983,17.328666 29.5123998,17.468 L30.3373998,17.831 C30.9460695,18.1023347 31.397065,18.3993317 31.6903998,18.722 C31.9837346,19.0520017 32.1303998,19.4626642 32.1303998,19.954 C32.1303998,20.6140033 31.8920689,21.141998 31.4153998,21.538 C30.9387308,21.934002 30.3300702,22.132 29.5893998,22.132 C28.9733967,22.132 28.4234022,21.9853348 27.9393998,21.692 C27.448064,21.4059986 27.0630679,21.0173358 26.7843998,20.526 L27.8073998,19.756 C28.3134023,20.4600035 28.9073964,20.812 29.5893998,20.812 C29.9120681,20.812 30.1650656,20.7386674 30.3483998,20.592 C30.5317341,20.452666 30.6233998,20.2583346 30.6233998,20.009 C30.6233998,19.8623326 30.5830669,19.7303339 30.5023998,19.613 C30.4143994,19.5029995 30.319067,19.418667 30.2163998,19.36 C30.1063993,19.301333 29.9340677,19.2170006 29.6993998,19.107 L28.9183998,18.755 C28.3537303,18.4983321 27.921068,18.2050017 27.6203998,17.875 C27.3123983,17.5449984 27.1583998,17.1416691 27.1583998,16.665 C27.1583998,16.0489969 27.3857309,15.5503352 27.8403998,15.169 C28.2950688,14.7949981 28.8707297,14.608 29.5673998,14.608 Z M35.3181999,16.434 C36.0295368,16.434 36.5978644,16.631998 37.0231999,17.028 C37.441202,17.4313354 37.6501999,18.0106629 37.6501999,18.766 L37.6501999,22 L36.2861999,22 L36.2861999,21.472 C35.8681978,21.9120022 35.3145367,22.132 34.6251999,22.132 C34.0458637,22.132 33.5875349,21.9780015 33.2501999,21.67 C32.9128649,21.3693318 32.7441999,20.9806691 32.7441999,20.504 C32.7441999,20.0126642 32.931198,19.6240014 33.3051999,19.338 C33.6718684,19.0593319 34.1705301,18.92 34.8011999,18.92 L36.1651999,18.92 L36.1651999,18.678 C36.1651999,18.3773318 36.0808674,18.1426675 35.9121999,17.974 C35.736199,17.8053325 35.4832016,17.721 35.1531999,17.721 C34.6691975,17.721 34.188869,17.9703308 33.7121999,18.469 L32.9421999,17.556 C33.5728697,16.8079963 34.3648618,16.434 35.3181999,16.434 Z M35.0211999,21.043 C35.3438682,21.043 35.6151988,20.9403344 35.8351999,20.735 C36.055201,20.536999 36.1651999,20.2803349 36.1651999,19.965 L36.1651999,19.899 L34.9991999,19.899 C34.4931974,19.899 34.2401999,20.0823315 34.2401999,20.449 C34.2401999,20.6323343 34.3135325,20.7753328 34.4601999,20.878 C34.5995339,20.9880006 34.7865321,21.043 35.0211999,21.043 Z M43.885,16.555 L41.19,22.132 L40.695,22.132 L38,16.555 L39.562,16.555 L40.937,19.646 L42.312,16.555 L43.885,16.555 Z M49.3828001,18.964 C49.3828001,19.2280013 49.3498004,19.4993319 49.2838001,19.778 L45.4558001,19.778 C45.5511339,20.1226684 45.7344654,20.3866658 46.0058001,20.57 C46.2698014,20.7606676 46.5997981,20.856 46.9958001,20.856 C47.5311361,20.856 48.037131,20.6726685 48.5138001,20.306 L49.1298001,21.318 C48.4844635,21.8606694 47.7584708,22.132 46.9518001,22.132 C46.0937958,22.132 45.3824696,21.8570028 44.8178001,21.307 C44.2531306,20.7643306 43.9708001,20.0896707 43.9708001,19.283 C43.9708001,18.4836627 44.2457973,17.8090028 44.7958001,17.259 C45.3384695,16.7089973 46.0131294,16.434 46.8198001,16.434 C47.5751372,16.434 48.191131,16.6759976 48.6678001,17.16 C49.1444691,17.6440024 49.3828001,18.2453297 49.3828001,18.964 Z M46.7648001,17.633 C46.4494652,17.633 46.1744679,17.731999 45.9398001,17.93 C45.7051323,18.128001 45.5438005,18.395665 45.4558001,18.733 L47.9418001,18.733 C47.9344667,18.395665 47.8171346,18.128001 47.5898001,17.93 C47.3624656,17.731999 47.0874684,17.633 46.7648001,17.633 Z" id="Save" fill="url(#linearGradient-1)"></path>
        </g>
    </g>
</svg>