<?xml version="1.0" encoding="UTF-8"?>
<svg width="123px" height="20px" viewBox="0 0 123 20" version="1.1" xmlns="http://www.w3.org/2000/svg" xmlns:xlink="http://www.w3.org/1999/xlink">
    <!-- Generator: Sketch 41.2 (35397) - http://www.bohemiancoding.com/sketch -->
    <title>button_newreleases_active</title>
    <desc>Created with Sketch.</desc>
    <defs></defs>
    <g id="Page-1" stroke="none" stroke-width="1" fill="none" fill-rule="evenodd">
        <g id="Homepage-V2-Copy" transform="translate(-42.000000, -175.000000)">
            <g id="button_newreleases_active" transform="translate(43.000000, 176.000000)">
                <rect id="Rectangle-4" stroke-opacity="0.01" stroke="#FFFFFF" x="0" y="0" width="121" height="18"></rect>
                <g id="Page-1" stroke="#FFFFFF">
                    <path d="M17.5,9 C17.5,4.306 13.694,0.5 9,0.5 C4.306,0.5 0.5,4.306 0.5,9 C0.5,13.694 4.306,17.5 9,17.5 C13.694,17.5 17.5,13.694 17.5,9 Z" id="Stroke-1"></path>
                    <path d="M9,12.1047 L9,5.8957" id="Stroke-3"></path>
                    <path d="M5.8953,9 L12.1043,9" id="Stroke-5"></path>
                </g>
                <path d="M39.38,5.4 L39.38,12.12 L38.93,12.12 L35.11,8.04 L35.11,12 L33.76,12 L33.76,5.28 L34.2,5.28 L38.03,9.33 L38.03,5.4 L39.38,5.4 Z M45.1580001,9.24 C45.1580001,9.4800012 45.1280004,9.7266654 45.0680001,9.98 L41.5880001,9.98 C41.6746672,10.2933349 41.8413322,10.5333325 42.0880001,10.7 C42.3280013,10.8733342 42.6279983,10.96 42.9880001,10.96 C43.4746692,10.96 43.9346646,10.793335 44.3680001,10.46 L44.9280001,11.38 C44.3413305,11.8733358 43.6813371,12.12 42.9480001,12.12 C42.1679962,12.12 41.521336,11.8700025 41.0080001,11.37 C40.4946642,10.8766642 40.2380001,10.263337 40.2380001,9.53 C40.2380001,8.8033297 40.4879976,8.1900025 40.9880001,7.69 C41.4813359,7.1899975 42.0946631,6.94 42.8280001,6.94 C43.5146702,6.94 44.0746646,7.1599978 44.5080001,7.6 C44.9413356,8.0400022 45.1580001,8.5866634 45.1580001,9.24 Z M42.7780001,8.03 C42.491332,8.03 42.2413345,8.1199991 42.0280001,8.3 C41.8146657,8.4800009 41.6680005,8.7233318 41.5880001,9.03 L43.8480001,9.03 C43.8413334,8.7233318 43.7346678,8.4800009 43.5280001,8.3 C43.3213324,8.1199991 43.0713349,8.03 42.7780001,8.03 Z M53.5560002,7.05 L51.2560002,12.12 L50.8160002,12.12 L49.3860002,9.24 L47.9660002,12.12 L47.5260002,12.12 L45.2260002,7.05 L46.6460002,7.05 L47.8260002,9.87 L49.1660002,6.94 L49.6160002,6.94 L50.9860002,9.81 L52.1360002,7.05 L53.5560002,7.05 Z M60.8220003,12 L59.1120003,9.67 L58.1220003,9.67 L58.1220003,12 L56.7720003,12 L56.7720003,5.4 L59.2520003,5.4 C59.9520038,5.4 60.5253314,5.5933314 60.9720003,5.98 C61.4120025,6.3733353 61.6320003,6.8899968 61.6320003,7.53 C61.6320003,7.9500021 61.528668,8.3199984 61.3220003,8.64 C61.1153326,8.9666683 60.8320021,9.2199991 60.4720003,9.4 L62.3420003,12 L60.8220003,12 Z M58.1220003,8.48 L59.2520003,8.48 C59.5653352,8.48 59.8119994,8.3933342 59.9920003,8.22 C60.1653345,8.0466658 60.2520003,7.8166681 60.2520003,7.53 C60.2520003,7.2499986 60.1620012,7.0233342 59.9820003,6.85 C59.8019994,6.6766658 59.5586685,6.59 59.2520003,6.59 L58.1220003,6.59 L58.1220003,8.48 Z M67.3400004,9.24 C67.3400004,9.4800012 67.3100007,9.7266654 67.2500004,9.98 L63.7700004,9.98 C63.8566675,10.2933349 64.0233325,10.5333325 64.2700004,10.7 C64.5100016,10.8733342 64.8099986,10.96 65.1700004,10.96 C65.6566695,10.96 66.1166649,10.793335 66.5500004,10.46 L67.1100004,11.38 C66.5233308,11.8733358 65.8633374,12.12 65.1300004,12.12 C64.3499965,12.12 63.7033363,11.8700025 63.1900004,11.37 C62.6766645,10.8766642 62.4200004,10.263337 62.4200004,9.53 C62.4200004,8.8033297 62.6699979,8.1900025 63.1700004,7.69 C63.6633362,7.1899975 64.2766634,6.94 65.0100004,6.94 C65.6966705,6.94 66.2566649,7.1599978 66.6900004,7.6 C67.1233359,8.0400022 67.3400004,8.5866634 67.3400004,9.24 Z M64.9600004,8.03 C64.6733323,8.03 64.4233348,8.1199991 64.2100004,8.3 C63.996666,8.4800009 63.8500008,8.7233318 63.7700004,9.03 L66.0300004,9.03 C66.0233337,8.7233318 65.9166681,8.4800009 65.7100004,8.3 C65.5033327,8.1199991 65.2533352,8.03 64.9600004,8.03 Z M69.5080005,12 L68.1580005,12 L68.1580005,4.5 L69.5080005,4.5 L69.5080005,12 Z M75.2560006,9.24 C75.2560006,9.4800012 75.2260009,9.7266654 75.1660006,9.98 L71.6860006,9.98 C71.7726677,10.2933349 71.9393327,10.5333325 72.1860006,10.7 C72.4260018,10.8733342 72.7259988,10.96 73.0860006,10.96 C73.5726697,10.96 74.0326651,10.793335 74.4660006,10.46 L75.0260006,11.38 C74.439331,11.8733358 73.7793376,12.12 73.0460006,12.12 C72.2659967,12.12 71.6193365,11.8700025 71.1060006,11.37 C70.5926647,10.8766642 70.3360006,10.263337 70.3360006,9.53 C70.3360006,8.8033297 70.5859981,8.1900025 71.0860006,7.69 C71.5793364,7.1899975 72.1926636,6.94 72.9260006,6.94 C73.6126707,6.94 74.1726651,7.1599978 74.6060006,7.6 C75.0393361,8.0400022 75.2560006,8.5866634 75.2560006,9.24 Z M72.8760006,8.03 C72.5893325,8.03 72.339335,8.1199991 72.1260006,8.3 C71.9126662,8.4800009 71.766001,8.7233318 71.6860006,9.03 L73.9460006,9.03 C73.9393339,8.7233318 73.8326683,8.4800009 73.6260006,8.3 C73.4193329,8.1199991 73.1693354,8.03 72.8760006,8.03 Z M78.1040006,6.94 C78.7506705,6.94 79.267332,7.1199982 79.6540006,7.48 C80.0340025,7.8466685 80.2240006,8.3733299 80.2240006,9.06 L80.2240006,12 L78.9840006,12 L78.9840006,11.52 C78.6039987,11.920002 78.1006704,12.12 77.4740006,12.12 C76.9473313,12.12 76.5306688,11.9800014 76.2240006,11.7 C75.9173324,11.4266653 75.7640006,11.0733355 75.7640006,10.64 C75.7640006,10.1933311 75.9339989,9.8400013 76.2740006,9.58 C76.6073356,9.3266654 77.0606644,9.2 77.6340006,9.2 L78.8740006,9.2 L78.8740006,8.98 C78.8740006,8.7066653 78.7973347,8.4933341 78.6440006,8.34 C78.4839998,8.1866659 78.2540021,8.11 77.9540006,8.11 C77.5139984,8.11 77.0773361,8.3366644 76.6440006,8.79 L75.9440006,7.96 C76.5173368,7.2799966 77.2373296,6.94 78.1040006,6.94 Z M77.8340006,11.13 C78.1273354,11.13 78.3739996,11.0366676 78.5740006,10.85 C78.7740016,10.6699991 78.8740006,10.4366681 78.8740006,10.15 L78.8740006,10.09 L77.8140006,10.09 C77.3539983,10.09 77.1240006,10.256665 77.1240006,10.59 C77.1240006,10.7566675 77.1906666,10.8866662 77.3240006,10.98 C77.4506679,11.0800005 77.6206662,11.13 77.8340006,11.13 Z M82.9720007,6.93 C83.7120044,6.93 84.3053318,7.1799975 84.7520007,7.68 L84.0720007,8.51 C83.7386657,8.1966651 83.3686694,8.04 82.9620007,8.04 C82.6086656,8.04 82.4320007,8.1566655 82.4320007,8.39 C82.4320007,8.4833338 82.4720003,8.5599997 82.5520007,8.62 C82.6253344,8.686667 82.7586664,8.7566663 82.9520007,8.83 L83.4320007,9.03 C83.9120031,9.2233343 84.2653329,9.4299989 84.4920007,9.65 C84.7120018,9.8766678 84.8220007,10.1733315 84.8220007,10.54 C84.8220007,11.0333358 84.6420025,11.4199986 84.2820007,11.7 C83.9153322,11.9800014 83.4520035,12.12 82.8920007,12.12 C82.0119963,12.12 81.3286698,11.8000032 80.8420007,11.16 L81.5220007,10.34 C81.9553362,10.7866689 82.4186649,11.01 82.9120007,11.01 C83.0920016,11.01 83.2420001,10.9733337 83.3620007,10.9 C83.4820013,10.833333 83.5420007,10.733334 83.5420007,10.6 C83.5420007,10.4933328 83.5053344,10.4100003 83.4320007,10.35 C83.3520003,10.2966664 83.2186683,10.2300004 83.0320007,10.15 L82.5020007,9.93 C82.0486651,9.7433324 81.7120018,9.5366678 81.4920007,9.31 C81.2653329,9.0833322 81.1520007,8.7866685 81.1520007,8.42 C81.1520007,7.953331 81.321999,7.586668 81.6620007,7.32 C81.9953357,7.0599987 82.431998,6.93 82.9720007,6.93 Z M90.2500008,9.24 C90.2500008,9.4800012 90.2200011,9.7266654 90.1600008,9.98 L86.6800008,9.98 C86.7666679,10.2933349 86.9333329,10.5333325 87.1800008,10.7 C87.420002,10.8733342 87.719999,10.96 88.0800008,10.96 C88.5666699,10.96 89.0266653,10.793335 89.4600008,10.46 L90.0200008,11.38 C89.4333312,11.8733358 88.7733378,12.12 88.0400008,12.12 C87.2599969,12.12 86.6133367,11.8700025 86.1000008,11.37 C85.5866649,10.8766642 85.3300008,10.263337 85.3300008,9.53 C85.3300008,8.8033297 85.5799983,8.1900025 86.0800008,7.69 C86.5733366,7.1899975 87.1866638,6.94 87.9200008,6.94 C88.6066709,6.94 89.1666653,7.1599978 89.6000008,7.6 C90.0333363,8.0400022 90.2500008,8.5866634 90.2500008,9.24 Z M87.8700008,8.03 C87.5833327,8.03 87.3333352,8.1199991 87.1200008,8.3 C86.9066664,8.4800009 86.7600012,8.7233318 86.6800008,9.03 L88.9400008,9.03 C88.9333341,8.7233318 88.8266685,8.4800009 88.6200008,8.3 C88.4133331,8.1199991 88.1633356,8.03 87.8700008,8.03 Z M92.7480009,6.93 C93.4880046,6.93 94.081332,7.1799975 94.5280009,7.68 L93.8480009,8.51 C93.5146659,8.1966651 93.1446696,8.04 92.7380009,8.04 C92.3846658,8.04 92.2080009,8.1566655 92.2080009,8.39 C92.2080009,8.4833338 92.2480005,8.5599997 92.3280009,8.62 C92.4013346,8.686667 92.5346666,8.7566663 92.7280009,8.83 L93.2080009,9.03 C93.6880033,9.2233343 94.0413331,9.4299989 94.2680009,9.65 C94.488002,9.8766678 94.5980009,10.1733315 94.5980009,10.54 C94.5980009,11.0333358 94.4180027,11.4199986 94.0580009,11.7 C93.6913324,11.9800014 93.2280037,12.12 92.6680009,12.12 C91.7879965,12.12 91.10467,11.8000032 90.6180009,11.16 L91.2980009,10.34 C91.7313364,10.7866689 92.1946651,11.01 92.6880009,11.01 C92.8680018,11.01 93.0180003,10.9733337 93.1380009,10.9 C93.2580015,10.833333 93.3180009,10.733334 93.3180009,10.6 C93.3180009,10.4933328 93.2813346,10.4100003 93.2080009,10.35 C93.1280005,10.2966664 92.9946685,10.2300004 92.8080009,10.15 L92.2780009,9.93 C91.8246653,9.7433324 91.488002,9.5366678 91.2680009,9.31 C91.0413331,9.0833322 90.9280009,8.7866685 90.9280009,8.42 C90.9280009,7.953331 91.0979992,7.586668 91.4380009,7.32 C91.7713359,7.0599987 92.2079982,6.93 92.7480009,6.93 Z" id="New-Releases" fill="#FFFFFF"></path>
                <path d="M33.5,15.5 L94.5,15.5" id="Line" stroke="#FFFFFF" stroke-linecap="square"></path>
            </g>
        </g>
    </g>
</svg>