<?xml version="1.0" encoding="UTF-8"?>
<svg width="152px" height="39px" viewBox="0 0 152 39" version="1.1" xmlns="http://www.w3.org/2000/svg" xmlns:xlink="http://www.w3.org/1999/xlink">
    <!-- Generator: Sketch 41.2 (35397) - http://www.bohemiancoding.com/sketch -->
    <title>button_deletelist_active</title>
    <desc>Created with Sketch.</desc>
    <defs></defs>
    <g id="Page-1" stroke="none" stroke-width="1" fill="none" fill-rule="evenodd">
        <g id="button_deletelist_active" transform="translate(1.000000, 1.000000)">
            <rect id="Rectangle-2" stroke="#D0011B" fill="#D0011B" x="0" y="0" width="150" height="37" rx="18.5"></rect>
            <path d="M52.0275995,14.74 C53.2009387,14.74 54.1542625,15.0699967 54.8875995,15.73 C55.6209365,16.3900033 55.9875995,17.2626612 55.9875995,18.348 C55.9875995,19.418672 55.6209365,20.2949966 54.8875995,20.977 C54.1469291,21.6590034 53.1936053,22 52.0275995,22 L49.6515995,22 L49.6515995,14.74 L52.0275995,14.74 Z M51.1365995,16.082 L51.1365995,20.658 L52.0165995,20.658 C52.7499365,20.658 53.3402639,20.4453355 53.7875995,20.02 C54.2349351,19.6019979 54.4585995,19.0446701 54.4585995,18.348 C54.4585995,17.6439965 54.2386017,17.0903353 53.7985995,16.687 C53.3512639,16.2836646 52.7572699,16.082 52.0165995,16.082 L51.1365995,16.082 Z M61.9913996,18.964 C61.9913996,19.2280013 61.9583999,19.4993319 61.8923996,19.778 L58.0643996,19.778 C58.1597334,20.1226684 58.3430649,20.3866657 58.6143996,20.57 C58.8784009,20.7606676 59.2083976,20.856 59.6043996,20.856 C60.1397356,20.856 60.6457305,20.6726685 61.1223996,20.306 L61.7383996,21.318 C61.093063,21.8606694 60.3670703,22.132 59.5603996,22.132 C58.7023953,22.132 57.9910691,21.8570027 57.4263996,21.307 C56.8617301,20.7643306 56.5793996,20.0896707 56.5793996,19.283 C56.5793996,18.4836627 56.8543968,17.8090027 57.4043996,17.259 C57.947069,16.7089972 58.6217289,16.434 59.4283996,16.434 C60.1837367,16.434 60.7997305,16.6759976 61.2763996,17.16 C61.7530686,17.6440024 61.9913996,18.2453297 61.9913996,18.964 Z M59.3733996,17.633 C59.0580647,17.633 58.7830674,17.731999 58.5483996,17.93 C58.3137318,18.128001 58.1524,18.395665 58.0643996,18.733 L60.5503996,18.733 C60.5430662,18.395665 60.4257341,18.128001 60.1983996,17.93 C59.9710651,17.731999 59.6960679,17.633 59.3733996,17.633 Z M64.3761997,22 L62.8911997,22 L62.8911997,13.75 L64.3761997,13.75 L64.3761997,22 Z M70.6989998,18.964 C70.6989998,19.2280013 70.6660001,19.4993319 70.5999998,19.778 L66.7719998,19.778 C66.8673336,20.1226684 67.0506651,20.3866657 67.3219998,20.57 C67.5860011,20.7606676 67.9159978,20.856 68.3119998,20.856 C68.8473358,20.856 69.3533307,20.6726685 69.8299998,20.306 L70.4459998,21.318 C69.8006632,21.8606694 69.0746705,22.132 68.2679998,22.132 C67.4099955,22.132 66.6986693,21.8570027 66.1339998,21.307 C65.5693303,20.7643306 65.2869998,20.0896707 65.2869998,19.283 C65.2869998,18.4836627 65.561997,17.8090027 66.1119998,17.259 C66.6546692,16.7089972 67.3293291,16.434 68.1359998,16.434 C68.8913369,16.434 69.5073307,16.6759976 69.9839998,17.16 C70.4606688,17.6440024 70.6989998,18.2453297 70.6989998,18.964 Z M68.0809998,17.633 C67.7656649,17.633 67.4906676,17.731999 67.2559998,17.93 C67.0213319,18.128001 66.8600002,18.395665 66.7719998,18.733 L69.2579998,18.733 C69.2506664,18.395665 69.1333342,18.128001 68.9059998,17.93 C68.6786653,17.731999 68.4036681,17.633 68.0809998,17.633 Z M74.3927999,20.801 C74.4808003,20.801 74.7154646,20.7863335 75.0967999,20.757 L75.0967999,22 C74.7447981,22.0880004 74.4038015,22.132 74.0737999,22.132 C73.3844631,22.132 72.8491351,21.9596684 72.4677999,21.615 C72.0864646,21.277665 71.8957999,20.7680034 71.8957999,20.086 L71.8957999,17.809 L71.0377999,17.809 L71.0377999,16.555 L71.8957999,16.555 L71.8957999,15.18 L73.3807999,15.18 L73.3807999,16.555 L74.9207999,16.555 L74.9207999,17.809 L73.3807999,17.809 L73.3807999,19.954 C73.3807999,20.2620015 73.4614657,20.4783327 73.6227999,20.603 C73.784134,20.7350007 74.0407981,20.801 74.3927999,20.801 Z M80.9136,18.964 C80.9136,19.2280013 80.8806003,19.4993319 80.8146,19.778 L76.9866,19.778 C77.0819338,20.1226684 77.2652653,20.3866657 77.5366,20.57 C77.8006013,20.7606676 78.130598,20.856 78.5266,20.856 C79.061936,20.856 79.5679309,20.6726685 80.0446,20.306 L80.6606,21.318 C80.0152634,21.8606694 79.2892707,22.132 78.4826,22.132 C77.6245957,22.132 76.9132694,21.8570027 76.3486,21.307 C75.7839305,20.7643306 75.5016,20.0896707 75.5016,19.283 C75.5016,18.4836627 75.7765972,17.8090027 76.3266,17.259 C76.8692693,16.7089972 77.5439293,16.434 78.3506,16.434 C79.1059371,16.434 79.7219309,16.6759976 80.1986,17.16 C80.675269,17.6440024 80.9136,18.2453297 80.9136,18.964 Z M78.2956,17.633 C77.980265,17.633 77.7052678,17.731999 77.4706,17.93 C77.2359321,18.128001 77.0746004,18.395665 76.9866,18.733 L79.4726,18.733 C79.4652666,18.395665 79.3479344,18.128001 79.1206,17.93 C78.8932655,17.731999 78.6182682,17.633 78.2956,17.633 Z M86.2222001,20.658 L89.4012001,20.658 L89.4012001,22 L84.7372001,22 L84.7372001,14.74 L86.2222001,14.74 L86.2222001,20.658 Z M90.8840002,13.651 C91.1480015,13.651 91.3753326,13.7389991 91.5660002,13.915 C91.7493345,14.0910009 91.8410002,14.3109987 91.8410002,14.575 C91.8410002,14.8316679 91.7493345,15.0479991 91.5660002,15.224 C91.3753326,15.4000009 91.1480015,15.488 90.8840002,15.488 C90.6199989,15.488 90.3963345,15.4000009 90.2130002,15.224 C90.029666,15.0479991 89.9380002,14.8316679 89.9380002,14.575 C89.9380002,14.3109987 90.029666,14.0910009 90.2130002,13.915 C90.3963345,13.7389991 90.6199989,13.651 90.8840002,13.651 Z M91.6320002,22 L90.1470002,22 L90.1470002,16.555 L91.6320002,16.555 L91.6320002,22 Z M94.6988003,16.423 C95.5128044,16.423 96.1654645,16.6979972 96.6568003,17.248 L95.9088003,18.161 C95.5421318,17.8163316 95.1351359,17.644 94.6878003,17.644 C94.2991317,17.644 94.1048003,17.772332 94.1048003,18.029 C94.1048003,18.1316672 94.1487999,18.2159997 94.2368003,18.282 C94.3174674,18.3553337 94.4641326,18.4323329 94.6768003,18.513 L95.2048003,18.733 C95.732803,18.9456677 96.1214657,19.1729988 96.3708003,19.415 C96.6128015,19.6643346 96.7338003,19.9906646 96.7338003,20.394 C96.7338003,20.9366694 96.5358023,21.3619985 96.1398003,21.67 C95.736465,21.9780015 95.2268034,22.132 94.6108003,22.132 C93.6427955,22.132 92.8911363,21.7800035 92.3558003,21.076 L93.1038003,20.174 C93.5804694,20.6653358 94.0901309,20.911 94.6328003,20.911 C94.8308013,20.911 94.9957997,20.8706671 95.1278003,20.79 C95.259801,20.7166663 95.3258003,20.6066674 95.3258003,20.46 C95.3258003,20.3426661 95.2854674,20.2510003 95.2048003,20.185 C95.1167999,20.126333 94.9701347,20.0530004 94.7648003,19.965 L94.1818003,19.723 C93.6831312,19.5176656 93.3128015,19.2903346 93.0708003,19.041 C92.8214657,18.7916654 92.6968003,18.4653353 92.6968003,18.062 C92.6968003,17.5486641 92.8837984,17.1453348 93.2578003,16.852 C93.6244688,16.5659986 94.1047973,16.423 94.6988003,16.423 Z M100.3946,20.801 C100.482601,20.801 100.717265,20.7863335 101.0986,20.757 L101.0986,22 C100.746599,22.0880004 100.405602,22.132 100.0756,22.132 C99.3862636,22.132 98.8509356,21.9596684 98.4696004,21.615 C98.0882652,21.277665 97.8976004,20.7680034 97.8976004,20.086 L97.8976004,17.809 L97.0396004,17.809 L97.0396004,16.555 L97.8976004,16.555 L97.8976004,15.18 L99.3826004,15.18 L99.3826004,16.555 L100.9226,16.555 L100.9226,17.809 L99.3826004,17.809 L99.3826004,19.954 C99.3826004,20.2620015 99.4632663,20.4783327 99.6246004,20.603 C99.7859345,20.7350007 100.042599,20.801 100.3946,20.801 Z" id="Delete-List" fill="#FFFFFF"></path>
        </g>
    </g>
</svg>