<?xml version="1.0" encoding="UTF-8"?>
<svg width="123px" height="20px" viewBox="0 0 123 20" version="1.1" xmlns="http://www.w3.org/2000/svg" xmlns:xlink="http://www.w3.org/1999/xlink">
    <!-- Generator: Sketch 41.2 (35397) - http://www.bohemiancoding.com/sketch -->
    <title>button_upcoming_active</title>
    <desc>Created with Sketch.</desc>
    <defs>
        <polygon id="path-1" points="0 17.5 18 17.5 18 0 0 0"></polygon>
    </defs>
    <g id="Page-1" stroke="none" stroke-width="1" fill="none" fill-rule="evenodd">
        <g id="Homepage-V2-Copy" transform="translate(-42.000000, -293.000000)">
            <g id="button_upcoming_active" transform="translate(43.000000, 294.000000)">
                <rect id="Rectangle-4-Copy-3" stroke-opacity="0.01" stroke="#FFFFFF" x="0" y="0" width="121" height="18"></rect>
                <path d="M39.3,9.27 C39.3,10.136671 39.0400026,10.8266641 38.52,11.34 C37.9933307,11.8600026 37.3200041,12.12 36.5,12.12 C35.6799959,12.12 35.0100026,11.8600026 34.49,11.34 C33.9633307,10.8266641 33.7,10.136671 33.7,9.27 L33.7,5.4 L35.05,5.4 L35.05,9.37 C35.05,9.8500024 35.1866653,10.2199987 35.46,10.48 C35.726668,10.7400013 36.0733312,10.87 36.5,10.87 C36.9333355,10.87 37.283332,10.7400013 37.55,10.48 C37.816668,10.2199987 37.95,9.8500024 37.95,9.37 L37.95,5.4 L39.3,5.4 L39.3,9.27 Z M43.2180001,6.94 C43.9180036,6.94 44.4946645,7.1833309 44.9480001,7.67 C45.394669,8.1566691 45.6180001,8.7733296 45.6180001,9.52 C45.6180001,10.2666704 45.394669,10.8866642 44.9480001,11.38 C44.4946645,11.8733358 43.9180036,12.12 43.2180001,12.12 C42.597997,12.12 42.1046686,11.920002 41.7380001,11.52 L41.7380001,13.8 L40.3880001,13.8 L40.3880001,7.05 L41.6280001,7.05 L41.6280001,7.67 C41.9813352,7.1833309 42.5113299,6.94 43.2180001,6.94 Z M42.9680001,10.89 C43.3280019,10.89 43.6313322,10.7633346 43.8780001,10.51 C44.124668,10.2633321 44.2480001,9.9366687 44.2480001,9.53 C44.2480001,9.1166646 44.1280013,8.7833346 43.8880001,8.53 C43.6413322,8.2833321 43.3346686,8.16 42.9680001,8.16 C42.6279984,8.16 42.334668,8.2733322 42.0880001,8.5 C41.8413322,8.7333345 41.7180001,9.0733311 41.7180001,9.52 C41.7180001,9.9600022 41.8413322,10.2966655 42.0880001,10.53 C42.3280013,10.7700012 42.6213317,10.89 42.9680001,10.89 Z M48.8160002,6.94 C49.3026693,6.94 49.7293317,7.0466656 50.0960002,7.26 C50.4626687,7.4800011 50.7526658,7.7799981 50.9660002,8.16 L50.0260002,8.89 C49.7059986,8.4099976 49.3093359,8.17 48.8360002,8.17 C48.4559983,8.17 48.1460014,8.2966654 47.9060002,8.55 C47.6593323,8.8100013 47.5360002,9.1333314 47.5360002,9.52 C47.5360002,9.9133353 47.6593323,10.2366654 47.9060002,10.49 C48.1460014,10.7500013 48.4559983,10.88 48.8360002,10.88 C49.2960025,10.88 49.6926652,10.6433357 50.0260002,10.17 L50.9660002,10.89 C50.7526658,11.2700019 50.4626687,11.5699989 50.0960002,11.79 C49.722665,12.0100011 49.2960026,12.12 48.8160002,12.12 C48.0759965,12.12 47.4493361,11.8700025 46.9360002,11.37 C46.4226643,10.8699975 46.1660002,10.253337 46.1660002,9.52 C46.1660002,8.7933297 46.4226643,8.1800025 46.9360002,7.68 C47.4493361,7.1866642 48.0759965,6.94 48.8160002,6.94 Z M54.0040002,6.94 C54.7373372,6.94 55.3639976,7.1866642 55.8840002,7.68 C56.4040028,8.1800025 56.6640002,8.7933297 56.6640002,9.52 C56.6640002,10.2466703 56.4040028,10.8599975 55.8840002,11.36 C55.3639976,11.8600025 54.7340039,12.11 53.9940002,12.11 C53.2539965,12.11 52.6306694,11.8600025 52.1240002,11.36 C51.6106643,10.8666642 51.3540002,10.253337 51.3540002,9.52 C51.3540002,8.7933297 51.6106643,8.1800025 52.1240002,7.68 C52.6373361,7.1866642 53.2639965,6.94 54.0040002,6.94 Z M54.0040002,8.17 C53.630665,8.17 53.3240014,8.2966654 53.0840002,8.55 C52.843999,8.8100013 52.7240002,9.1366647 52.7240002,9.53 C52.7240002,9.9233353 52.843999,10.2433321 53.0840002,10.49 C53.3240014,10.7433346 53.630665,10.87 54.0040002,10.87 C54.3706687,10.87 54.6773323,10.7433346 54.9240002,10.49 C55.1640014,10.2366654 55.2840002,9.9166686 55.2840002,9.53 C55.2840002,9.1433314 55.1640014,8.8200013 54.9240002,8.56 C54.6773323,8.2999987 54.3706687,8.17 54.0040002,8.17 Z M63.2420003,6.94 C63.8220032,6.94 64.2786653,7.1199982 64.6120003,7.48 C64.9453353,7.8466685 65.1120003,8.329997 65.1120003,8.93 L65.1120003,12 L63.7620003,12 L63.7620003,9.12 C63.7620003,8.8266652 63.6820011,8.5933342 63.5220003,8.42 C63.3619995,8.2466658 63.1486683,8.16 62.8820003,8.16 C62.6153323,8.16 62.3986678,8.2466658 62.2320003,8.42 C62.0586661,8.5933342 61.9720003,8.8166653 61.9720003,9.09 L61.9720003,12 L60.6220003,12 L60.6220003,9.12 C60.6220003,8.8266652 60.5420011,8.5933342 60.3820003,8.42 C60.2219995,8.2466658 60.0086683,8.16 59.7420003,8.16 C59.4686656,8.16 59.2486678,8.2466658 59.0820003,8.42 C58.9153328,8.5933342 58.8320003,8.8266652 58.8320003,9.12 L58.8320003,12 L57.4820003,12 L57.4820003,7.05 L58.7220003,7.05 L58.7220003,7.49 C59.0753354,7.1233315 59.5419974,6.94 60.1220003,6.94 C60.7886703,6.94 61.2786654,7.1766643 61.5920003,7.65 C61.998669,7.1766643 62.5486635,6.94 63.2420003,6.94 Z M66.8400004,4.41 C67.0800016,4.41 67.2866662,4.4899992 67.4600004,4.65 C67.6266679,4.8100008 67.7100004,5.0099988 67.7100004,5.25 C67.7100004,5.4833345 67.6266679,5.6799992 67.4600004,5.84 C67.2866662,6.0000008 67.0800016,6.08 66.8400004,6.08 C66.5999992,6.08 66.3966679,6.0000008 66.2300004,5.84 C66.0633329,5.6799992 65.9800004,5.4833345 65.9800004,5.25 C65.9800004,5.0099988 66.0633329,4.8100008 66.2300004,4.65 C66.3966679,4.4899992 66.5999992,4.41 66.8400004,4.41 Z M67.5200004,12 L66.1700004,12 L66.1700004,7.05 L67.5200004,7.05 L67.5200004,12 Z M71.3180005,6.94 C71.8913367,6.94 72.3446655,7.1199982 72.6780005,7.48 C73.0113355,7.8466685 73.1780005,8.329997 73.1780005,8.93 L73.1780005,12 L71.8380005,12 L71.8380005,9.11 C71.8380005,8.8233319 71.754668,8.5900009 71.5880005,8.41 C71.4146663,8.2366658 71.1913352,8.15 70.9180005,8.15 C70.6446658,8.15 70.4213347,8.2366658 70.2480005,8.41 C70.0679996,8.5900009 69.9780005,8.8233319 69.9780005,9.11 L69.9780005,12 L68.6280005,12 L68.6280005,7.05 L69.8680005,7.05 L69.8680005,7.5 C70.2413357,7.1266648 70.7246642,6.94 71.3180005,6.94 Z M79.2160006,7.05 L79.2160006,11.45 C79.2160006,12.2566707 78.9826696,12.8699979 78.5160006,13.29 C78.0493316,13.7100021 77.4293378,13.92 76.6560006,13.92 C75.7226626,13.92 74.9126707,13.6133364 74.2260006,13 L74.9360006,12.06 C75.4893367,12.4866688 76.025998,12.7 76.5460006,12.7 C76.9460026,12.7 77.2659994,12.6033343 77.5060006,12.41 C77.7460018,12.209999 77.8660006,11.9166686 77.8660006,11.53 L77.8660006,11.26 C77.5059988,11.6533353 77.0026705,11.85 76.3560006,11.85 C75.6693305,11.85 75.1026695,11.6200023 74.6560006,11.16 C74.2093317,10.7066644 73.9860006,10.1166703 73.9860006,9.39 C73.9860006,8.656663 74.2093317,8.0633356 74.6560006,7.61 C75.1026695,7.1633311 75.6693305,6.94 76.3560006,6.94 C77.0826709,6.94 77.6226655,7.1833309 77.9760006,7.67 L77.9760006,7.05 L79.2160006,7.05 Z M76.6360006,10.71 C76.9760023,10.71 77.2693327,10.5933345 77.5160006,10.36 C77.7626685,10.1266655 77.8860006,9.7966688 77.8860006,9.37 C77.8860006,8.9433312 77.7660018,8.6233344 77.5260006,8.41 C77.2793327,8.1966656 76.982669,8.09 76.6360006,8.09 C76.2693321,8.09 75.9660018,8.2033322 75.7260006,8.43 C75.4793327,8.6633345 75.3560006,8.979998 75.3560006,9.38 C75.3560006,9.780002 75.4793327,10.0999988 75.7260006,10.34 C75.9726685,10.5866679 76.2759988,10.71 76.6360006,10.71 Z M87.0320007,12 L85.3220007,9.67 L84.3320007,9.67 L84.3320007,12 L82.9820007,12 L82.9820007,5.4 L85.4620007,5.4 C86.1620042,5.4 86.7353318,5.5933314 87.1820007,5.98 C87.6220029,6.3733353 87.8420007,6.8899968 87.8420007,7.53 C87.8420007,7.9500021 87.7386684,8.3199984 87.5320007,8.64 C87.325333,8.9666683 87.0420025,9.2199991 86.6820007,9.4 L88.5520007,12 L87.0320007,12 Z M84.3320007,8.48 L85.4620007,8.48 C85.7753356,8.48 86.0219998,8.3933342 86.2020007,8.22 C86.3753349,8.0466658 86.4620007,7.8166681 86.4620007,7.53 C86.4620007,7.2499986 86.3720016,7.0233342 86.1920007,6.85 C86.0119998,6.6766658 85.7686689,6.59 85.4620007,6.59 L84.3320007,6.59 L84.3320007,8.48 Z M93.5500008,9.24 C93.5500008,9.4800012 93.5200011,9.7266654 93.4600008,9.98 L89.9800008,9.98 C90.0666679,10.2933349 90.2333329,10.5333325 90.4800008,10.7 C90.720002,10.8733342 91.019999,10.96 91.3800008,10.96 C91.8666699,10.96 92.3266653,10.793335 92.7600008,10.46 L93.3200008,11.38 C92.7333312,11.8733358 92.0733378,12.12 91.3400008,12.12 C90.5599969,12.12 89.9133367,11.8700025 89.4000008,11.37 C88.8866649,10.8766642 88.6300008,10.263337 88.6300008,9.53 C88.6300008,8.8033297 88.8799983,8.1900025 89.3800008,7.69 C89.8733366,7.1899975 90.4866638,6.94 91.2200008,6.94 C91.9066709,6.94 92.4666653,7.1599978 92.9000008,7.6 C93.3333363,8.0400022 93.5500008,8.5866634 93.5500008,9.24 Z M91.1700008,8.03 C90.8833327,8.03 90.6333352,8.1199991 90.4200008,8.3 C90.2066664,8.4800009 90.0600012,8.7233318 89.9800008,9.03 L92.2400008,9.03 C92.2333341,8.7233318 92.1266685,8.4800009 91.9200008,8.3 C91.7133331,8.1199991 91.4633356,8.03 91.1700008,8.03 Z M95.7180009,12 L94.3680009,12 L94.3680009,4.5 L95.7180009,4.5 L95.7180009,12 Z M101.466001,9.24 C101.466001,9.4800012 101.436001,9.7266654 101.376001,9.98 L97.896001,9.98 C97.9826681,10.2933349 98.1493331,10.5333325 98.396001,10.7 C98.6360022,10.8733342 98.9359992,10.96 99.296001,10.96 C99.7826701,10.96 100.242665,10.793335 100.676001,10.46 L101.236001,11.38 C100.649331,11.8733358 99.989338,12.12 99.256001,12.12 C98.4759971,12.12 97.8293369,11.8700025 97.316001,11.37 C96.8026651,10.8766642 96.546001,10.263337 96.546001,9.53 C96.546001,8.8033297 96.7959985,8.1900025 97.296001,7.69 C97.7893368,7.1899975 98.402664,6.94 99.136001,6.94 C99.8226711,6.94 100.382665,7.1599978 100.816001,7.6 C101.249336,8.0400022 101.466001,8.5866634 101.466001,9.24 Z M99.086001,8.03 C98.7993329,8.03 98.5493354,8.1199991 98.336001,8.3 C98.1226666,8.4800009 97.9760014,8.7233318 97.896001,9.03 L100.156001,9.03 C100.149334,8.7233318 100.042669,8.4800009 99.836001,8.3 C99.6293333,8.1199991 99.3793358,8.03 99.086001,8.03 Z M104.314001,6.94 C104.960671,6.94 105.477332,7.1199982 105.864001,7.48 C106.244003,7.8466685 106.434001,8.3733299 106.434001,9.06 L106.434001,12 L105.194001,12 L105.194001,11.52 C104.813999,11.920002 104.310671,12.12 103.684001,12.12 C103.157332,12.12 102.740669,11.9800014 102.434001,11.7 C102.127333,11.4266653 101.974001,11.0733355 101.974001,10.64 C101.974001,10.1933311 102.143999,9.8400013 102.484001,9.58 C102.817336,9.3266654 103.270665,9.2 103.844001,9.2 L105.084001,9.2 L105.084001,8.98 C105.084001,8.7066653 105.007335,8.4933341 104.854001,8.34 C104.694,8.1866659 104.464003,8.11 104.164001,8.11 C103.723999,8.11 103.287337,8.3366644 102.854001,8.79 L102.154001,7.96 C102.727337,7.2799966 103.44733,6.94 104.314001,6.94 Z M104.044001,11.13 C104.337336,11.13 104.584,11.0366676 104.784001,10.85 C104.984002,10.6699991 105.084001,10.4366681 105.084001,10.15 L105.084001,10.09 L104.024001,10.09 C103.563999,10.09 103.334001,10.256665 103.334001,10.59 C103.334001,10.7566675 103.400667,10.8866662 103.534001,10.98 C103.660668,11.0800005 103.830667,11.13 104.044001,11.13 Z M109.182001,6.93 C109.922005,6.93 110.515332,7.1799975 110.962001,7.68 L110.282001,8.51 C109.948666,8.1966651 109.57867,8.04 109.172001,8.04 C108.818666,8.04 108.642001,8.1566655 108.642001,8.39 C108.642001,8.4833338 108.682001,8.5599997 108.762001,8.62 C108.835335,8.686667 108.968667,8.7566663 109.162001,8.83 L109.642001,9.03 C110.122004,9.2233343 110.475333,9.4299989 110.702001,9.65 C110.922002,9.8766678 111.032001,10.1733315 111.032001,10.54 C111.032001,11.0333358 110.852003,11.4199986 110.492001,11.7 C110.125333,11.9800014 109.662004,12.12 109.102001,12.12 C108.221997,12.12 107.53867,11.8000032 107.052001,11.16 L107.732001,10.34 C108.165337,10.7866689 108.628665,11.01 109.122001,11.01 C109.302002,11.01 109.452001,10.9733337 109.572001,10.9 C109.692002,10.833333 109.752001,10.733334 109.752001,10.6 C109.752001,10.4933328 109.715335,10.4100003 109.642001,10.35 C109.562001,10.2966664 109.428669,10.2300004 109.242001,10.15 L108.712001,9.93 C108.258666,9.7433324 107.922002,9.5366678 107.702001,9.31 C107.475333,9.0833322 107.362001,8.7866685 107.362001,8.42 C107.362001,7.953331 107.531999,7.586668 107.872001,7.32 C108.205336,7.0599987 108.641998,6.93 109.182001,6.93 Z M116.460001,9.24 C116.460001,9.4800012 116.430002,9.7266654 116.370001,9.98 L112.890001,9.98 C112.976668,10.2933349 113.143333,10.5333325 113.390001,10.7 C113.630002,10.8733342 113.929999,10.96 114.290001,10.96 C114.77667,10.96 115.236666,10.793335 115.670001,10.46 L116.230001,11.38 C115.643332,11.8733358 114.983338,12.12 114.250001,12.12 C113.469997,12.12 112.823337,11.8700025 112.310001,11.37 C111.796665,10.8766642 111.540001,10.263337 111.540001,9.53 C111.540001,8.8033297 111.789999,8.1900025 112.290001,7.69 C112.783337,7.1899975 113.396664,6.94 114.130001,6.94 C114.816671,6.94 115.376666,7.1599978 115.810001,7.6 C116.243337,8.0400022 116.460001,8.5866634 116.460001,9.24 Z M114.080001,8.03 C113.793333,8.03 113.543336,8.1199991 113.330001,8.3 C113.116667,8.4800009 112.970002,8.7233318 112.890001,9.03 L115.150001,9.03 C115.143335,8.7233318 115.036669,8.4800009 114.830001,8.3 C114.623334,8.1199991 114.373336,8.03 114.080001,8.03 Z M118.958001,6.93 C119.698005,6.93 120.291332,7.1799975 120.738001,7.68 L120.058001,8.51 C119.724666,8.1966651 119.35467,8.04 118.948001,8.04 C118.594666,8.04 118.418001,8.1566655 118.418001,8.39 C118.418001,8.4833338 118.458001,8.5599997 118.538001,8.62 C118.611335,8.686667 118.744667,8.7566663 118.938001,8.83 L119.418001,9.03 C119.898004,9.2233343 120.251333,9.4299989 120.478001,9.65 C120.698002,9.8766678 120.808001,10.1733315 120.808001,10.54 C120.808001,11.0333358 120.628003,11.4199986 120.268001,11.7 C119.901333,11.9800014 119.438004,12.12 118.878001,12.12 C117.997997,12.12 117.31467,11.8000032 116.828001,11.16 L117.508001,10.34 C117.941337,10.7866689 118.404665,11.01 118.898001,11.01 C119.078002,11.01 119.228001,10.9733337 119.348001,10.9 C119.468002,10.833333 119.528001,10.733334 119.528001,10.6 C119.528001,10.4933328 119.491335,10.4100003 119.418001,10.35 C119.338001,10.2966664 119.204669,10.2300004 119.018001,10.15 L118.488001,9.93 C118.034666,9.7433324 117.698002,9.5366678 117.478001,9.31 C117.251333,9.0833322 117.138001,8.7866685 117.138001,8.42 C117.138001,7.953331 117.308,7.586668 117.648001,7.32 C117.981336,7.0599987 118.417999,6.93 118.958001,6.93 Z" id="Upcoming-Releases" fill="#FFFFFF"></path>
                <path d="M33.5,15.5 L120.5,15.5" id="Line" stroke="#FFFFFF" stroke-linecap="square"></path>
                <g id="Page-1">
                    <path d="M15.4591,17 L2.5411,17 C1.4141,17 0.5001,16.086 0.5001,14.959 L0.5001,3.578 C0.5001,2.451 1.4141,1.537 2.5411,1.537 L15.4591,1.537 C16.5861,1.537 17.5001,2.451 17.5001,3.578 L17.5001,14.959 C17.5001,16.086 16.5861,17 15.4591,17 Z" id="Stroke-1" stroke="#FFFFFF"></path>
                    <path d="M0.5,5.3856 L17.5,5.3856" id="Stroke-3" stroke="#FFFFFF"></path>
                    <path d="M4.3235,0 L4.3235,3.506" id="Stroke-5" stroke="#FFFFFF"></path>
                    <path d="M13.6765,0 L13.6765,3.506" id="Stroke-7" stroke="#FFFFFF"></path>
                    <mask id="mask-2" fill="white">
                        <use xlink:href="#path-1"></use>
                    </mask>
                    <g id="Clip-10"></g>
                    <polygon id="Stroke-9" stroke="#FFFFFF" mask="url(#mask-2)" points="12.289 14.613 15.065 14.613 15.065 11.837 12.289 11.837"></polygon>
                </g>
            </g>
        </g>
    </g>
</svg>