<?xml version="1.0" encoding="UTF-8"?>
<svg width="77px" height="39px" viewBox="0 0 77 39" version="1.1" xmlns="http://www.w3.org/2000/svg" xmlns:xlink="http://www.w3.org/1999/xlink">
    <!-- Generator: Sketch 41.2 (35397) - http://www.bohemiancoding.com/sketch -->
    <title>button_cancel</title>
    <desc>Created with Sketch.</desc>
    <defs></defs>
    <g id="Page-1" stroke="none" stroke-width="1" fill="none" fill-rule="evenodd">
        <g id="button_cancel" transform="translate(1.000000, 1.000000)">
            <rect id="Rectangle-2" stroke="#4A4A4A" x="0" y="0" width="75" height="37" rx="18.5"></rect>
            <path d="M24.3180997,14.608 C25.0074365,14.608 25.6344302,14.7656651 26.1990997,15.081 C26.7564358,15.4036683 27.1964314,15.8473305 27.5190997,16.412 L26.3970997,17.204 C25.8837638,16.3899959 25.1907708,15.983 24.3180997,15.983 C23.6360963,15.983 23.0751019,16.2066644 22.6350997,16.654 C22.1950975,17.1013356 21.9750997,17.6769965 21.9750997,18.381 C21.9750997,19.0776701 22.1950975,19.6459978 22.6350997,20.086 C23.0751019,20.5333356 23.6360963,20.757 24.3180997,20.757 C25.1907708,20.757 25.8837638,20.3500041 26.3970997,19.536 L27.5190997,20.328 C27.2037648,20.8926695 26.7637692,21.3326651 26.1990997,21.648 C25.6344302,21.9706683 25.0037699,22.132 24.3070997,22.132 C23.221761,22.132 22.3087701,21.7690036 21.5680997,21.043 C20.820096,20.3243297 20.4460997,19.4333386 20.4460997,18.37 C20.4460997,17.3066613 20.820096,16.4120036 21.5680997,15.686 C22.3161035,14.9673297 23.232761,14.608 24.3180997,14.608 Z M30.6078998,16.434 C31.3192367,16.434 31.8875644,16.631998 32.3128998,17.028 C32.7309019,17.4313354 32.9398998,18.0106629 32.9398998,18.766 L32.9398998,22 L31.5758998,22 L31.5758998,21.472 C31.1578977,21.9120022 30.6042366,22.132 29.9148998,22.132 C29.3355636,22.132 28.8772348,21.9780015 28.5398998,21.67 C28.2025648,21.3693318 28.0338998,20.980669 28.0338998,20.504 C28.0338998,20.0126642 28.2208979,19.6240014 28.5948998,19.338 C28.9615683,19.0593319 29.46023,18.92 30.0908998,18.92 L31.4548998,18.92 L31.4548998,18.678 C31.4548998,18.3773318 31.3705673,18.1426675 31.2018998,17.974 C31.0258989,17.8053325 30.7729015,17.721 30.4428998,17.721 C29.9588974,17.721 29.4785689,17.9703308 29.0018998,18.469 L28.2318998,17.556 C28.8625696,16.8079963 29.6545617,16.434 30.6078998,16.434 Z M30.3108998,21.043 C30.6335681,21.043 30.9048987,20.9403344 31.1248998,20.735 C31.3449009,20.536999 31.4548998,20.2803349 31.4548998,19.965 L31.4548998,19.899 L30.2888998,19.899 C29.7828973,19.899 29.5298998,20.0823315 29.5298998,20.449 C29.5298998,20.6323342 29.6032324,20.7753328 29.7498998,20.878 C29.8892338,20.9880006 30.076232,21.043 30.3108998,21.043 Z M37.0736999,16.434 C37.7043697,16.434 38.2030314,16.631998 38.5696999,17.028 C38.9363684,17.4313354 39.1196999,17.9629967 39.1196999,18.623 L39.1196999,22 L37.6456999,22 L37.6456999,18.821 C37.6456999,18.5056651 37.5540342,18.249001 37.3706999,18.051 C37.1800323,17.8603324 36.9343681,17.765 36.6336999,17.765 C36.3330317,17.765 36.0873675,17.8603324 35.8966999,18.051 C35.6986989,18.249001 35.5996999,18.5056651 35.5996999,18.821 L35.5996999,22 L34.1146999,22 L34.1146999,16.555 L35.4786999,16.555 L35.4786999,17.05 C35.8893686,16.6393313 36.42103,16.434 37.0736999,16.434 Z M42.9015,16.434 C43.436836,16.434 43.9061647,16.5513322 44.3095,16.786 C44.7128354,17.0280012 45.0318322,17.3579979 45.2665,17.776 L44.2325,18.579 C43.8804982,18.0509974 43.4441693,17.787 42.9235,17.787 C42.5054979,17.787 42.1645013,17.9263319 41.9005,18.205 C41.6291653,18.4910014 41.4935,18.8466645 41.4935,19.272 C41.4935,19.7046688 41.6291653,20.0603319 41.9005,20.339 C42.1645013,20.6250014 42.5054979,20.768 42.9235,20.768 C43.4295025,20.768 43.8658315,20.5076693 44.2325,19.987 L45.2665,20.779 C45.0318322,21.1970021 44.7128354,21.5269988 44.3095,21.769 C43.8988313,22.0110012 43.4295026,22.132 42.9015,22.132 C42.0874959,22.132 41.3981695,21.8570027 40.8335,21.307 C40.2688305,20.7569973 39.9865,20.0786707 39.9865,19.272 C39.9865,18.4726627 40.2688305,17.7980028 40.8335,17.248 C41.3981695,16.7053306 42.0874959,16.434 42.9015,16.434 Z M51.1053001,18.964 C51.1053001,19.2280013 51.0723004,19.4993319 51.0063001,19.778 L47.1783001,19.778 C47.2736339,20.1226684 47.4569654,20.3866657 47.7283001,20.57 C47.9923014,20.7606676 48.3222981,20.856 48.7183001,20.856 C49.2536361,20.856 49.759631,20.6726685 50.2363001,20.306 L50.8523001,21.318 C50.2069635,21.8606694 49.4809708,22.132 48.6743001,22.132 C47.8162958,22.132 47.1049696,21.8570027 46.5403001,21.307 C45.9756306,20.7643306 45.6933001,20.0896707 45.6933001,19.283 C45.6933001,18.4836627 45.9682973,17.8090027 46.5183001,17.259 C47.0609695,16.7089972 47.7356294,16.434 48.5423001,16.434 C49.2976372,16.434 49.913631,16.6759976 50.3903001,17.16 C50.8669691,17.6440024 51.1053001,18.2453297 51.1053001,18.964 Z M48.4873001,17.633 C48.1719652,17.633 47.8969679,17.731999 47.6623001,17.93 C47.4276323,18.128001 47.2663005,18.395665 47.1783001,18.733 L49.6643001,18.733 C49.6569667,18.395665 49.5396346,18.128001 49.3123001,17.93 C49.0849656,17.731999 48.8099684,17.633 48.4873001,17.633 Z M53.4901002,22 L52.0051002,22 L52.0051002,13.75 L53.4901002,13.75 L53.4901002,22 Z" id="Cancel" fill="#4A4A4A"></path>
        </g>
    </g>
</svg>