<?xml version="1.0" encoding="UTF-8"?>
<svg width="123px" height="20px" viewBox="0 0 123 20" version="1.1" xmlns="http://www.w3.org/2000/svg" xmlns:xlink="http://www.w3.org/1999/xlink">
    <!-- Generator: Sketch 41.2 (35397) - http://www.bohemiancoding.com/sketch -->
    <title>button_popular_active</title>
    <desc>Created with Sketch.</desc>
    <defs></defs>
    <g id="Page-1" stroke="none" stroke-width="1" fill="none" fill-rule="evenodd">
        <g id="Homepage-V2-Copy" transform="translate(-42.000000, -215.000000)">
            <g id="button_popular_active" transform="translate(43.000000, 216.000000)">
                <rect id="Rectangle-4-Copy" stroke-opacity="0.01" stroke="#FFFFFF" x="0" y="0" width="121" height="18"></rect>
                <path d="M36.24,5.4 C36.9400035,5.4 37.5133311,5.5933314 37.96,5.98 C38.4000022,6.3733353 38.62,6.8899968 38.62,7.53 C38.62,8.1633365 38.4000022,8.6766647 37.96,9.07 C37.5133311,9.470002 36.9400035,9.67 36.24,9.67 L35.11,9.67 L35.11,12 L33.76,12 L33.76,5.4 L36.24,5.4 Z M35.11,6.59 L35.11,8.49 L36.24,8.49 C36.5533349,8.49 36.7999991,8.4000009 36.98,8.22 C37.1533342,8.0466658 37.24,7.8166681 37.24,7.53 C37.24,7.2499986 37.1500009,7.0233342 36.97,6.85 C36.7899991,6.6766658 36.5466682,6.59 36.24,6.59 L35.11,6.59 Z M41.6380001,6.94 C42.3713371,6.94 42.9979975,7.1866642 43.5180001,7.68 C44.0380027,8.1800025 44.2980001,8.7933297 44.2980001,9.52 C44.2980001,10.2466703 44.0380027,10.8599975 43.5180001,11.36 C42.9979975,11.8600025 42.3680038,12.11 41.6280001,12.11 C40.8879964,12.11 40.2646693,11.8600025 39.7580001,11.36 C39.2446642,10.8666642 38.9880001,10.253337 38.9880001,9.52 C38.9880001,8.7933297 39.2446642,8.1800025 39.7580001,7.68 C40.271336,7.1866642 40.8979964,6.94 41.6380001,6.94 Z M41.6380001,8.17 C41.2646649,8.17 40.9580013,8.2966654 40.7180001,8.55 C40.4779989,8.8100013 40.3580001,9.1366647 40.3580001,9.53 C40.3580001,9.9233353 40.4779989,10.2433321 40.7180001,10.49 C40.9580013,10.7433346 41.2646649,10.87 41.6380001,10.87 C42.0046686,10.87 42.3113322,10.7433346 42.5580001,10.49 C42.7980013,10.2366654 42.9180001,9.9166686 42.9180001,9.53 C42.9180001,9.1433314 42.7980013,8.8200013 42.5580001,8.56 C42.3113322,8.2999987 42.0046686,8.17 41.6380001,8.17 Z M47.9460002,6.94 C48.6460037,6.94 49.2226646,7.1833309 49.6760002,7.67 C50.1226691,8.1566691 50.3460002,8.7733296 50.3460002,9.52 C50.3460002,10.2666704 50.1226691,10.8866642 49.6760002,11.38 C49.2226646,11.8733358 48.6460037,12.12 47.9460002,12.12 C47.3259971,12.12 46.8326687,11.920002 46.4660002,11.52 L46.4660002,13.8 L45.1160002,13.8 L45.1160002,7.05 L46.3560002,7.05 L46.3560002,7.67 C46.7093353,7.1833309 47.23933,6.94 47.9460002,6.94 Z M47.6960002,10.89 C48.056002,10.89 48.3593323,10.7633346 48.6060002,10.51 C48.8526681,10.2633321 48.9760002,9.9366687 48.9760002,9.53 C48.9760002,9.1166646 48.8560014,8.7833346 48.6160002,8.53 C48.3693323,8.2833321 48.0626687,8.16 47.6960002,8.16 C47.3559985,8.16 47.0626681,8.2733322 46.8160002,8.5 C46.5693323,8.7333345 46.4460002,9.0733311 46.4460002,9.52 C46.4460002,9.9600022 46.5693323,10.2966655 46.8160002,10.53 C47.0560014,10.7700012 47.3493318,10.89 47.6960002,10.89 Z M55.6840002,9.82 C55.6840002,10.5066701 55.470669,11.0599979 55.0440002,11.48 C54.6106647,11.9066688 54.0673368,12.12 53.4140002,12.12 C52.7473302,12.12 52.200669,11.9100021 51.7740002,11.49 C51.3406647,11.0699979 51.1240002,10.5133368 51.1240002,9.82 L51.1240002,7.05 L52.4740002,7.05 L52.4740002,9.93 C52.4740002,10.2166681 52.5639993,10.4466658 52.7440002,10.62 C52.9173344,10.7933342 53.1406655,10.88 53.4140002,10.88 C53.6740015,10.88 53.8939993,10.7933342 54.0740002,10.62 C54.2473344,10.4466658 54.3340002,10.2166681 54.3340002,9.93 L54.3340002,7.05 L55.6840002,7.05 L55.6840002,9.82 Z M58.0920003,12 L56.7420003,12 L56.7420003,4.5 L58.0920003,4.5 L58.0920003,12 Z M61.2300004,6.94 C61.8766703,6.94 62.3933318,7.1199982 62.7800004,7.48 C63.1600023,7.8466685 63.3500004,8.3733299 63.3500004,9.06 L63.3500004,12 L62.1100004,12 L62.1100004,11.52 C61.7299985,11.920002 61.2266702,12.12 60.6000004,12.12 C60.0733311,12.12 59.6566686,11.9800014 59.3500004,11.7 C59.0433322,11.4266653 58.8900004,11.0733355 58.8900004,10.64 C58.8900004,10.1933311 59.0599987,9.8400013 59.4000004,9.58 C59.7333354,9.3266654 60.1866642,9.2 60.7600004,9.2 L62.0000004,9.2 L62.0000004,8.98 C62.0000004,8.7066653 61.9233345,8.4933341 61.7700004,8.34 C61.6099996,8.1866659 61.3800019,8.11 61.0800004,8.11 C60.6399982,8.11 60.2033359,8.3366644 59.7700004,8.79 L59.0700004,7.96 C59.6433366,7.2799966 60.3633294,6.94 61.2300004,6.94 Z M60.9600004,11.13 C61.2533352,11.13 61.4999994,11.0366676 61.7000004,10.85 C61.9000014,10.6699991 62.0000004,10.4366681 62.0000004,10.15 L62.0000004,10.09 L60.9400004,10.09 C60.4799981,10.09 60.2500004,10.256665 60.2500004,10.59 C60.2500004,10.7566675 60.3166664,10.8866662 60.4500004,10.98 C60.5766677,11.0800005 60.746666,11.13 60.9600004,11.13 Z M67.0180005,6.99 C67.184668,6.99 67.3313332,7.0099998 67.4580005,7.05 L67.4580005,8.24 L67.0980005,8.24 C66.6913318,8.24 66.3680017,8.3466656 66.1280005,8.56 C65.8879993,8.7800011 65.7680005,9.1033312 65.7680005,9.53 L65.7680005,12 L64.4180005,12 L64.4180005,7.05 L65.6580005,7.05 L65.6580005,7.65 C65.9980022,7.2099978 66.451331,6.99 67.0180005,6.99 Z" id="Popular" fill="#FFFFFF"></path>
                <path d="M33.5,15.5 L67.5,15.5" id="Line" stroke="#FFFFFF" stroke-linecap="square"></path>
                <g id="Page-1" transform="translate(0.000000, 1.500000)" stroke="#FFFFFF">
                    <path d="M15.4591,14.4259 L2.5411,14.4259 C1.4141,14.4259 0.5001,13.5119 0.5001,12.3849 L0.5001,2.5409 C0.5001,1.4139 1.4141,0.4999 2.5411,0.4999 L15.4591,0.4999 C16.5861,0.4999 17.5001,1.4139 17.5001,2.5409 L17.5001,12.3849 C17.5001,13.5119 16.5861,14.4259 15.4591,14.4259 Z" id="Stroke-1"></path>
                    <path d="M7.3953,4.987 L11.0363,7.089 C11.3243,7.255 11.3243,7.671 11.0363,7.837 L7.3953,9.939 C7.1073,10.105 6.7483,9.897 6.7483,9.565 L6.7483,5.361 C6.7483,5.029 7.1073,4.821 7.3953,4.987 Z" id="Stroke-3"></path>
                </g>
            </g>
        </g>
    </g>
</svg>