<?xml version="1.0" encoding="UTF-8"?>
<svg width="77px" height="39px" viewBox="0 0 77 39" version="1.1" xmlns="http://www.w3.org/2000/svg" xmlns:xlink="http://www.w3.org/1999/xlink">
    <!-- Generator: Sketch 41.2 (35397) - http://www.bohemiancoding.com/sketch -->
    <title>button_remove_active</title>
    <desc>Created with Sketch.</desc>
    <defs></defs>
    <g id="Page-1" stroke="none" stroke-width="1" fill="none" fill-rule="evenodd">
        <g id="button_remove_active" transform="translate(1.000000, 1.000000)">
            <rect id="Rectangle-2" stroke="#D0021B" fill="#D0021B" x="0" y="0" width="75" height="37" rx="18.5"></rect>
            <path d="M18.779777,22.9395817 L16.4028867,19.7008949 L15.0267922,19.7008949 L15.0267922,22.9395817 L13.1502999,22.9395817 L13.1502999,13.765619 L16.5974859,13.765619 C17.5704868,13.765619 18.3674089,14.0343485 18.9882762,14.5718157 C19.5998767,15.1185495 19.9056724,15.8367061 19.9056724,16.7263069 C19.9056724,17.3101075 19.7620411,17.8244003 19.4747742,18.2692007 C19.1875073,18.7232678 18.7936795,19.0753962 18.293279,19.3255964 L20.8925684,22.9395817 L18.779777,22.9395817 Z M15.0267922,18.0468016 L16.5974859,18.0468016 C17.0330196,18.0468016 17.3758815,17.9263366 17.6260817,17.685403 C17.8670153,17.4444695 17.9874802,17.124774 17.9874802,16.7263069 C17.9874802,16.3371066 17.862382,16.0220443 17.6121818,15.7811108 C17.3619815,15.5401772 17.0237529,15.4197122 16.5974859,15.4197122 L15.0267922,15.4197122 L15.0267922,18.0468016 Z M27.8397604,19.1031973 C27.8397604,19.4367976 27.7980609,19.7796595 27.7146609,20.1317931 L22.8774805,20.1317931 C22.9979473,20.5673269 23.2296107,20.9009222 23.5724777,21.1325891 C23.906078,21.3735226 24.3230721,21.4939876 24.8234726,21.4939876 C25.4999399,21.4939876 26.1393309,21.2623242 26.7416648,20.7989904 L27.5200617,22.0777852 C26.7045942,22.7635192 25.7872071,23.106381 24.7678728,23.106381 C23.6836718,23.106381 22.7848178,22.7588859 22.0712838,22.0638853 C21.3577498,21.3781513 21.0009881,20.5256299 21.0009881,19.5062957 C21.0009881,18.496228 21.3484832,17.6437067 22.0434839,16.948706 C22.7292179,16.2537054 23.5817392,15.9062103 24.6010735,15.9062103 C25.5555411,15.9062103 26.3339301,16.212006 26.936264,16.8236065 C27.5385979,17.4352071 27.8397604,18.1950631 27.8397604,19.1031973 Z M24.5315738,17.4213041 C24.1331067,17.4213041 23.7856116,17.5464024 23.489078,17.7966026 C23.1925444,18.0468028 22.9886806,18.3850314 22.8774805,18.8112985 L26.0188677,18.8112985 C26.0096011,18.3850314 25.8613365,18.0468028 25.5740696,17.7966026 C25.2868026,17.5464024 24.9393075,17.4213041 24.5315738,17.4213041 Z M36.9831434,15.9062103 C37.7893441,15.9062103 38.4241019,16.1564068 38.8874356,16.6568072 C39.3507694,17.1664744 39.5824328,17.8382983 39.5824328,18.672299 L39.5824328,22.9395817 L37.7059404,22.9395817 L37.7059404,18.936398 C37.7059404,18.5286643 37.594742,18.2043355 37.3723418,17.9634019 C37.1499416,17.7224684 36.8534124,17.6020034 36.4827454,17.6020034 C36.1120784,17.6020034 35.8109159,17.7224684 35.5792491,17.9634019 C35.3383155,18.2043355 35.2178505,18.5147644 35.2178505,18.8946981 L35.2178505,22.9395817 L33.3413581,22.9395817 L33.3413581,18.936398 C33.3413581,18.5286643 33.2301597,18.2043355 33.0077595,17.9634019 C32.7853593,17.7224684 32.4888301,17.6020034 32.1181631,17.6020034 C31.7382294,17.6020034 31.4324337,17.7224684 31.2007668,17.9634019 C30.9690999,18.2043355 30.8532682,18.5286643 30.8532682,18.936398 L30.8532682,22.9395817 L28.9767759,22.9395817 L28.9767759,16.0591096 L30.7003689,16.0591096 L30.7003689,16.6707072 C31.1915027,16.16104 31.8401602,15.9062103 32.646361,15.9062103 C33.5730285,15.9062103 34.2541189,16.2351723 34.6896527,16.8931063 C35.2549199,16.2351723 36.0194091,15.9062103 36.9831434,15.9062103 Z M44.3473336,15.9062103 C45.3666679,15.9062103 46.2377223,16.2490721 46.960523,16.9348061 C47.6833237,17.6298067 48.0447186,18.4823281 48.0447186,19.4923957 C48.0447186,20.5024633 47.6833237,21.3549847 46.960523,22.0499853 C46.2377223,22.744986 45.3620346,23.0924811 44.3334336,23.0924811 C43.3048327,23.0924811 42.4384115,22.744986 41.7341442,22.0499853 C41.0206102,21.3642514 40.6638485,20.51173 40.6638485,19.4923957 C40.6638485,18.4823281 41.0206102,17.6298067 41.7341442,16.9348061 C42.4476782,16.2490721 43.3187326,15.9062103 44.3473336,15.9062103 Z M44.3473336,17.6159033 C43.8283998,17.6159033 43.4021391,17.7919675 43.0685388,18.1441012 C42.7349385,18.5055015 42.5681408,18.9595618 42.5681408,19.5062957 C42.5681408,20.0530295 42.7349385,20.4978233 43.0685388,20.8406902 C43.4021391,21.1928239 43.8283998,21.3688881 44.3473336,21.3688881 C44.8570007,21.3688881 45.2832614,21.1928239 45.6261284,20.8406902 C45.9597287,20.4885566 46.1265264,20.0437628 46.1265264,19.5062957 C46.1265264,18.9688285 45.9597287,18.5194015 45.6261284,18.1580011 C45.2832614,17.7966008 44.8570007,17.6159033 44.3473336,17.6159033 Z M55.5757081,16.0591096 L52.1702219,23.106381 L51.5447245,23.106381 L48.1392383,16.0591096 L50.1130303,16.0591096 L51.8505232,19.9649938 L53.5880162,16.0591096 L55.5757081,16.0591096 Z M62.5229,19.1031973 C62.5229,19.4367976 62.4812006,19.7796595 62.3978006,20.1317931 L57.5606202,20.1317931 C57.681087,20.5673269 57.9127504,20.9009222 58.2556174,21.1325891 C58.5892177,21.3735226 59.0062118,21.4939876 59.5066123,21.4939876 C60.1830796,21.4939876 60.8224706,21.2623242 61.4248045,20.7989904 L62.2032013,22.0777852 C61.3877339,22.7635192 60.4703468,23.106381 59.4510125,23.106381 C58.3668115,23.106381 57.4679575,22.7588859 56.7544235,22.0638853 C56.0408895,21.3781513 55.6841278,20.5256299 55.6841278,19.5062957 C55.6841278,18.496228 56.0316229,17.6437067 56.7266236,16.948706 C57.4123575,16.2537054 58.2648789,15.9062103 59.2842132,15.9062103 C60.2386808,15.9062103 61.0170698,16.212006 61.6194037,16.8236065 C62.2217376,17.4352071 62.5229,18.1950631 62.5229,19.1031973 Z M59.2147135,17.4213041 C58.8162464,17.4213041 58.4687513,17.5464024 58.1722177,17.7966026 C57.8756841,18.0468028 57.6718203,18.3850314 57.5606202,18.8112985 L60.7020074,18.8112985 C60.6927408,18.3850314 60.5444762,18.0468028 60.2572092,17.7966026 C59.9699423,17.5464024 59.6224472,17.4213041 59.2147135,17.4213041 Z" id="Remove" fill="#FFFFFF"></path>
        </g>
    </g>
</svg>