<?xml version="1.0" encoding="UTF-8"?>
<svg width="466px" height="231px" viewBox="0 0 466 231" version="1.1" xmlns="http://www.w3.org/2000/svg" xmlns:xlink="http://www.w3.org/1999/xlink">
    <!-- Generator: Sketch 41.2 (35397) - http://www.bohemiancoding.com/sketch -->
    <title>logo_white</title>
    <desc>Created with Sketch.</desc>
    <defs></defs>
    <g id="Page-1" stroke="none" stroke-width="1" fill="none" fill-rule="evenodd">
        <g id="Splash-Page" transform="translate(-279.000000, -181.000000)" fill="#FFFFFF">
            <g id="logo_white" transform="translate(279.000000, 181.000000)">
                <path d="M40.9788475,187.809798 C45.0300552,185.713858 48.2968957,182.763218 50.7780486,178.954578 C53.2574415,175.147478 54.498568,171.007958 54.498568,166.536238 C54.498568,159.551018 52.051958,153.611898 47.1622583,148.720858 C42.2707984,143.831578 36.3311686,141.385178 29.3453489,141.385178 L0.000110009443,141.385178 L0.000110009443,156.755038 L1.43419311,158.189218 C5.89177573,162.646198 13.1189561,162.646198 17.5765387,158.189218 C22.1868144,153.579118 29.6617361,153.579118 34.2720118,158.189218 L34.2720118,158.189218 C38.8822875,162.799098 38.8822875,170.273378 34.2720118,174.883258 L34.2720118,174.883258 C29.6617361,179.493138 22.1868144,179.493138 17.5765387,174.883258 C13.1189561,170.426058 5.89177573,170.426058 1.43419311,174.883258 L0.000110009443,176.317218 L0.000110009443,210.957098 L16.7688494,210.957098 L16.7688494,190.639218 L24.7126313,190.639218 L38.5683206,210.957098 L56.5946879,210.957098 L40.9788475,187.809798 Z" id="Fill-4"></path>
                <path d="M75.8594535,182.423758 L94.3577614,182.423758 C93.071971,177.928498 90.0535319,175.680098 85.3006839,175.680098 C80.3550994,175.680098 77.2094894,177.928498 75.8594535,182.423758 L75.8594535,182.423758 Z M76.0524101,193.502738 C77.6581079,197.419398 81.2551967,199.377618 86.8436764,199.377618 C90.310514,199.377618 93.2334649,198.254958 95.6105489,196.006558 L107.170341,204.098598 C102.417493,210.070718 95.5133006,213.057658 86.4579833,213.057658 C78.3010031,213.057658 71.7653421,210.664938 66.8525404,205.879718 C61.9384186,201.097578 59.4827878,195.042298 59.4827878,187.721798 C59.4827878,180.465538 61.8913346,174.395958 66.708428,169.515038 C71.5253015,164.634118 77.6581079,162.194538 85.1092675,162.194538 C92.3003648,162.194538 98.2432949,164.602878 102.931897,169.419558 C107.61874,174.236018 109.964581,180.272598 109.964581,187.528858 C109.964581,189.648778 109.738622,191.639998 109.290223,193.502738 L76.0524101,193.502738 Z" id="Fill-6"></path>
                <path d="M130.676895,182.423758 L149.175203,182.423758 C147.889412,177.928498 144.870973,175.680098 140.118125,175.680098 C135.172541,175.680098 132.026931,177.928498 130.676895,182.423758 L130.676895,182.423758 Z M130.869851,193.502738 C132.475549,197.419398 136.072638,199.377618 141.661118,199.377618 C145.127955,199.377618 148.050906,198.254958 150.42799,196.006558 L161.987783,204.098598 C157.234935,210.070718 150.330742,213.057658 141.275425,213.057658 C133.118444,213.057658 126.582783,210.664938 121.669982,205.879718 C116.75586,201.097578 114.300229,195.042298 114.300229,187.721798 C114.300229,180.465538 116.708776,174.395958 121.525869,169.515038 C126.342743,164.634118 132.475549,162.194538 139.926929,162.194538 C147.117806,162.194538 153.060736,164.602878 157.749339,169.419558 C162.436181,174.236018 164.782022,180.272598 164.782022,187.528858 C164.782022,189.648778 164.556063,191.639998 164.107664,193.502738 L130.869851,193.502738 Z" id="Fill-8"></path>
                <polygon id="Fill-10" points="171.623312 211.7093 187.615824 211.7093 187.615824 141.3852 171.623312 141.3852"></polygon>
                <path d="M211.997481,177.400146 C211.997481,178.218546 212.837953,178.899006 214.517358,179.436906 C216.198302,179.977886 218.15361,180.604886 220.383501,181.319886 C222.613172,182.036426 224.935472,182.781126 227.348639,183.555746 C229.761806,184.331906 231.78774,185.871686 233.426441,188.177946 C235.063381,190.482886 235.883612,193.383366 235.883612,196.873666 C235.883612,202.397426 233.816974,206.475566 229.681939,209.106546 C225.548664,211.740606 220.642243,213.057746 214.964216,213.057746 C204.17295,213.057746 196.978772,209.236566 193.383223,201.593106 L207.352883,194.561026 C208.571347,198.093566 211.077142,199.858846 214.866968,199.858846 C217.756916,199.858846 219.20266,199.002826 219.20266,197.287486 C219.20266,196.400226 218.382649,195.675766 216.742408,195.111246 C215.102168,194.550026 213.173482,193.889806 210.956352,193.129486 C208.739002,192.370706 206.446625,191.583546 204.078781,190.771306 C201.709618,189.959066 199.722848,188.477366 198.11715,186.324666 C196.511452,184.173506 195.708603,181.523826 195.708603,178.378486 C195.708603,173.240386 197.613747,169.259486 201.422493,166.430946 C205.23124,163.607246 209.816214,162.194406 215.177414,162.194406 C224.68135,162.194406 231.297098,165.919886 235.022678,173.367546 L221.53596,179.436906 C220.121459,176.675686 218.130068,175.294526 215.563327,175.294526 C213.186023,175.294526 211.997481,175.995226 211.997481,177.400146" id="Fill-12"></path>
                <path d="M258.427429,195.236756 C260.288788,197.162196 262.728578,198.124916 265.748557,198.124916 C268.767216,198.124916 271.207006,197.162196 273.071446,195.236756 C274.932805,193.308236 275.864145,190.772956 275.864145,187.626076 C275.864145,184.479196 274.932805,181.940836 273.071446,180.015396 C271.207006,178.088416 268.767216,177.124156 265.748557,177.124156 C262.728578,177.124156 260.288788,178.088416 258.427429,180.015396 C256.562989,181.940836 255.633189,184.479196 255.633189,187.626076 C255.633189,190.772956 256.562989,193.308236 258.427429,195.236756 L258.427429,195.236756 Z M275.864145,163.542896 L291.856658,163.542896 L291.856658,230.975756 L275.864145,230.975756 L275.864145,207.278236 C272.588504,211.130656 268.028613,213.057636 262.184471,213.057636 C255.76168,213.057636 250.383318,210.633676 246.047626,205.784216 C241.711934,200.936076 239.544968,194.882336 239.544968,187.626076 C239.544968,180.369816 241.711934,174.316076 246.047626,169.466616 C250.383318,164.618476 255.76168,162.194516 262.184471,162.194516 C268.028613,162.194516 272.588504,164.119956 275.864145,167.973916 L275.864145,163.542896 Z" id="Fill-13"></path>
                <path d="M331.645929,163.542918 L347.638442,163.542918 L347.638442,211.709278 L331.645929,211.709278 L331.645929,206.892598 C328.754441,211.003738 324.290258,213.057658 318.25316,213.057658 C313.051913,213.057658 308.796308,211.274998 305.489204,207.710998 C302.18078,204.145678 300.526458,199.024738 300.526458,192.345538 L300.526458,163.542918 L316.520511,163.542918 L316.520511,190.322858 C316.520511,192.828438 317.177488,194.722418 318.494741,196.006558 C319.810234,197.290698 321.561804,197.933538 323.746151,197.933538 C326.250186,197.933538 328.191413,197.177838 329.574452,195.669518 C330.95441,194.161198 331.645929,191.994198 331.645929,189.165878 L331.645929,163.542918 Z" id="Fill-14"></path>
                <path d="M373.36074,195.236756 C375.2221,197.162196 377.661889,198.124916 380.681869,198.124916 C383.700528,198.124916 386.140317,197.162196 388.004757,195.236756 C389.866117,193.308236 390.797457,190.772956 390.797457,187.626076 C390.797457,184.479196 389.866117,181.940836 388.004757,180.015396 C386.140317,178.088416 383.700528,177.124156 380.681869,177.124156 C377.661889,177.124156 375.2221,178.088416 373.36074,180.015396 C371.4963,181.940836 370.5665,184.479196 370.5665,187.626076 C370.5665,190.772956 371.4963,193.308236 373.36074,195.236756 L373.36074,195.236756 Z M390.797457,163.542896 L406.78997,163.542896 L406.78997,211.709256 L390.797457,211.709256 L390.797457,207.278236 C387.521816,211.130656 382.961924,213.057636 377.117783,213.057636 C370.694991,213.057636 365.31663,210.633676 360.980937,205.784216 C356.645245,200.936076 354.478279,194.882336 354.478279,187.626076 C354.478279,180.369816 356.645245,174.316076 360.980937,169.466616 C365.31663,164.618476 370.694991,162.194516 377.117783,162.194516 C382.961924,162.194516 387.521816,164.119956 390.797457,167.973916 L390.797457,163.542896 Z" id="Fill-15"></path>
                <path d="M432.513808,195.236756 C434.375167,197.162196 436.814957,198.124916 439.835156,198.124916 C442.853595,198.124916 445.293385,197.162196 447.157825,195.236756 C449.019184,193.308236 449.950524,190.772956 449.950524,187.626076 C449.950524,184.479196 449.019184,181.940836 447.157825,180.015396 C445.293385,178.088416 442.853595,177.124156 439.835156,177.124156 C436.814957,177.124156 434.375167,178.088416 432.513808,180.015396 C430.649368,181.940836 429.719568,184.479196 429.719568,187.626076 C429.719568,190.772956 430.649368,193.308236 432.513808,195.236756 L432.513808,195.236756 Z M449.950524,144.276396 L465.943037,144.276396 L465.943037,211.709256 L449.950524,211.709256 L449.950524,207.278236 C446.674883,211.130656 442.114992,213.057636 436.27085,213.057636 C429.848059,213.057636 424.469697,210.633676 420.134005,205.784216 C415.798313,200.936076 413.631347,194.882336 413.631347,187.626076 C413.631347,180.369816 415.798313,174.316076 420.134005,169.466616 C424.469697,164.618476 429.848059,162.194516 436.27085,162.194516 C442.114992,162.194516 446.674883,164.119956 449.950524,167.973916 L449.950524,144.276396 Z" id="Fill-16"></path>
                <path d="M337.580678,67.5176048 L337.580678,67.5176048 C327.55509,52.1375191 306.952503,47.792038 291.563362,57.8117276 L291.563362,57.8117276 C276.684276,67.4992353 256.764386,63.2978674 247.071175,48.4273167 L232.983099,26.8151581 C215.177165,-0.500950011 178.585232,-8.21876581 151.253042,9.57669097 L151.253042,9.57690965 C123.920852,27.3723664 116.198273,63.9427682 134.004426,91.2588763 L134.004426,91.2588763 C151.810578,118.574984 188.402511,126.293019 215.734701,108.497343 L237.359584,94.4175562 C252.238671,84.7300485 272.15856,88.9314164 281.851771,103.801967 L281.851771,103.801967 C291.87736,119.181834 312.479946,123.527315 327.869087,113.507844 L327.869087,113.507844 C343.258228,103.488155 347.606267,82.8976905 337.580678,67.5176048" id="Fill-1"></path>
            </g>
        </g>
    </g>
</svg>