<?xml version="1.0" encoding="UTF-8"?>
<svg width="176px" height="37px" viewBox="0 0 176 37" version="1.1" xmlns="http://www.w3.org/2000/svg" xmlns:xlink="http://www.w3.org/1999/xlink">
    <!-- Generator: Sketch 41.2 (35397) - http://www.bohemiancoding.com/sketch -->
    <title>splash_button_facebooklogin_hovered</title>
    <desc>Created with Sketch.</desc>
    <defs></defs>
    <g id="Page-1" stroke="none" stroke-width="1" fill="none" fill-rule="evenodd" fill-opacity="0.75">
        <g id="Splash-Page" transform="translate(-424.000000, -490.000000)" fill="#FFFFFF">
            <g id="splash_button_facebooklogin_hovered" transform="translate(424.000000, 490.000000)">
                <path d="M24.1425921,12.9330139 C24.1425921,13.1642554 23.9554257,13.3517287 23.7241842,13.3516673 C23.3933129,13.3516059 22.9626891,13.3511149 22.6940634,13.3511149 C22.6408416,13.3511149 21.7568812,13.302497 21.7568812,14.1520198 C21.7622218,14.4990356 21.7568812,15.6939168 21.7568812,15.6939168 L23.7023307,15.6939168 C23.9454198,15.6939168 24.1374356,15.900297 24.1198792,16.1427723 L23.986303,17.9915386 C23.9704653,18.2104416 23.7882099,18.3799901 23.5687545,18.3799901 L21.8128653,18.3799901 L21.8128653,25.8732119 C21.8128653,26.1044535 21.6254535,26.2918653 21.3942119,26.2918653 L18.9811842,26.2918653 C18.7499426,26.2918653 18.5625307,26.1044535 18.5625307,25.8732119 L18.5625307,18.4318614 L17.2123426,18.4318614 C16.981101,18.4318614 16.7936277,18.2444495 16.7936277,18.0132079 L16.7936277,16.1202436 C16.7936277,15.889002 16.981101,15.7015901 17.2123426,15.7015901 L18.5094317,15.7015901 C18.5094317,14.8941782 18.5166752,14.1768198 18.5094317,13.4277248 C18.5094317,11.2778594 20.1590614,10.6541149 21.6421505,10.6541149 L24.1413644,10.6541149 L24.1425921,10.6541149 L24.1425921,12.9330139 Z" id="Fill-1"></path>
                <path d="M54.321,20.658 L57.5,20.658 L57.5,22 L52.836,22 L52.836,14.74 L54.321,14.74 L54.321,20.658 Z M60.8528001,16.434 C61.6594708,16.434 62.3487972,16.7053306 62.9208001,17.248 C63.492803,17.7980027 63.7788001,18.4726627 63.7788001,19.272 C63.7788001,20.0713373 63.492803,20.7459972 62.9208001,21.296 C62.3487972,21.8460027 61.6558042,22.121 60.8418001,22.121 C60.027796,22.121 59.3421362,21.8460027 58.7848001,21.296 C58.2201306,20.7533306 57.9378001,20.0786707 57.9378001,19.272 C57.9378001,18.4726627 58.2201306,17.7980027 58.7848001,17.248 C59.3494696,16.7053306 60.038796,16.434 60.8528001,16.434 Z M60.8528001,17.787 C60.4421314,17.787 60.1048014,17.9263319 59.8408001,18.205 C59.5767988,18.4910014 59.4448001,18.8503312 59.4448001,19.283 C59.4448001,19.7156688 59.5767988,20.0676653 59.8408001,20.339 C60.1048014,20.6176681 60.4421314,20.757 60.8528001,20.757 C61.2561354,20.757 61.5934654,20.6176681 61.8648001,20.339 C62.1288014,20.0603319 62.2608001,19.7083355 62.2608001,19.283 C62.2608001,18.8576645 62.1288014,18.5020014 61.8648001,18.216 C61.5934654,17.9299986 61.2561354,17.787 60.8528001,17.787 Z M70.1456002,16.555 L70.1456002,21.395 C70.1456002,22.2823378 69.8889361,22.9569977 69.3756002,23.419 C68.8622643,23.8810023 68.1802711,24.112 67.3296002,24.112 C66.3029284,24.112 65.4119373,23.77467 64.6566002,23.1 L65.4376002,22.066 C66.0462699,22.5353357 66.6365973,22.77 67.2086002,22.77 C67.6486024,22.77 68.0005989,22.6636677 68.2646002,22.451 C68.5286015,22.2309989 68.6606002,21.9083355 68.6606002,21.483 L68.6606002,21.186 C68.2645982,21.6186688 67.7109371,21.835 66.9996002,21.835 C66.2442631,21.835 65.620936,21.5820025 65.1296002,21.076 C64.6382644,20.5773308 64.3926002,19.9283373 64.3926002,19.129 C64.3926002,18.3223293 64.6382644,17.6696692 65.1296002,17.171 C65.620936,16.6796642 66.2442631,16.434 66.9996002,16.434 C67.7989375,16.434 68.3929316,16.701664 68.7816002,17.237 L68.7816002,16.555 L70.1456002,16.555 Z M67.3076002,20.581 C67.6816021,20.581 68.0042655,20.4526679 68.2756002,20.196 C68.5469349,19.939332 68.6826002,19.5763357 68.6826002,19.107 C68.6826002,18.6376643 68.5506015,18.2856678 68.2866002,18.051 C68.0152655,17.8163322 67.6889354,17.699 67.3076002,17.699 C66.9042648,17.699 66.5706015,17.8236654 66.3066002,18.073 C66.0352655,18.3296679 65.8996002,18.6779978 65.8996002,19.118 C65.8996002,19.5580022 66.0352655,19.9099987 66.3066002,20.174 C66.5779349,20.4453347 66.9115982,20.581 67.3076002,20.581 Z M74.9262004,13.651 C75.1902017,13.651 75.4175327,13.7389991 75.6082004,13.915 C75.7915346,14.0910009 75.8832004,14.3109987 75.8832004,14.575 C75.8832004,14.8316679 75.7915346,15.0479991 75.6082004,15.224 C75.4175327,15.4000009 75.1902017,15.488 74.9262004,15.488 C74.662199,15.488 74.4385346,15.4000009 74.2552004,15.224 C74.0718661,15.0479991 73.9802004,14.8316679 73.9802004,14.575 C73.9802004,14.3109987 74.0718661,14.0910009 74.2552004,13.915 C74.4385346,13.7389991 74.662199,13.651 74.9262004,13.651 Z M75.6742004,22 L74.1892004,22 L74.1892004,16.555 L75.6742004,16.555 L75.6742004,22 Z M79.8520005,16.434 C80.4826703,16.434 80.981332,16.631998 81.3480005,17.028 C81.714669,17.4313353 81.8980005,17.9629967 81.8980005,18.623 L81.8980005,22 L80.4240005,22 L80.4240005,18.821 C80.4240005,18.5056651 80.3323347,18.249001 80.1490005,18.051 C79.9583328,17.8603324 79.7126686,17.765 79.4120005,17.765 C79.1113323,17.765 78.8656681,17.8603324 78.6750005,18.051 C78.4769995,18.249001 78.3780005,18.5056651 78.3780005,18.821 L78.3780005,22 L76.8930005,22 L76.8930005,16.555 L78.2570005,16.555 L78.2570005,17.05 C78.6676692,16.6393313 79.1993305,16.434 79.8520005,16.434 Z M94.1256006,16.555 L91.5956006,22.132 L91.1116006,22.132 L89.5386006,18.964 L87.9766006,22.132 L87.4926006,22.132 L84.9626006,16.555 L86.5246006,16.555 L87.8226006,19.657 L89.2966006,16.434 L89.7916006,16.434 L91.2986006,19.591 L92.5636006,16.555 L94.1256006,16.555 Z M95.4764007,13.651 C95.740402,13.651 95.9677331,13.7389991 96.1584007,13.915 C96.341735,14.0910009 96.4334007,14.3109987 96.4334007,14.575 C96.4334007,14.8316679 96.341735,15.0479991 96.1584007,15.224 C95.9677331,15.4000009 95.740402,15.488 95.4764007,15.488 C95.2123994,15.488 94.988735,15.4000009 94.8054007,15.224 C94.6220665,15.0479991 94.5304007,14.8316679 94.5304007,14.575 C94.5304007,14.3109987 94.6220665,14.0910009 94.8054007,13.915 C94.988735,13.7389991 95.2123994,13.651 95.4764007,13.651 Z M96.2244007,22 L94.7394007,22 L94.7394007,16.555 L96.2244007,16.555 L96.2244007,22 Z M100.237201,20.801 C100.325201,20.801 100.559866,20.7863335 100.941201,20.757 L100.941201,22 C100.589199,22.0880004 100.248202,22.132 99.9182008,22.132 C99.228864,22.132 98.6935361,21.9596684 98.3122008,21.615 C97.9308656,21.277665 97.7402008,20.7680034 97.7402008,20.086 L97.7402008,17.809 L96.8822008,17.809 L96.8822008,16.555 L97.7402008,16.555 L97.7402008,15.18 L99.2252008,15.18 L99.2252008,16.555 L100.765201,16.555 L100.765201,17.809 L99.2252008,17.809 L99.2252008,19.954 C99.2252008,20.2620015 99.3058667,20.4783327 99.4672008,20.603 C99.628535,20.7350007 99.8851991,20.801 100.237201,20.801 Z M104.745001,16.434 C105.361004,16.434 105.852332,16.631998 106.219001,17.028 C106.585669,17.4313353 106.769001,17.9629967 106.769001,18.623 L106.769001,22 L105.295001,22 L105.295001,18.832 C105.295001,18.5166651 105.203335,18.260001 105.020001,18.062 C104.829333,17.8713324 104.583669,17.776 104.283001,17.776 C103.982333,17.776 103.736669,17.8713324 103.546001,18.062 C103.348,18.260001 103.249001,18.5166651 103.249001,18.832 L103.249001,22 L101.764001,22 L101.764001,13.75 L103.249001,13.75 L103.249001,17.017 C103.63767,16.6283314 104.136331,16.434 104.745001,16.434 Z M115.641601,16.082 L112.352601,16.082 L112.352601,17.897 L115.047601,17.897 L115.047601,19.239 L112.352601,19.239 L112.352601,22 L110.867601,22 L110.867601,14.74 L115.641601,14.74 L115.641601,16.082 Z M118.334401,16.434 C119.045738,16.434 119.614066,16.631998 120.039401,17.028 C120.457403,17.4313353 120.666401,18.0106629 120.666401,18.766 L120.666401,22 L119.302401,22 L119.302401,21.472 C118.884399,21.9120022 118.330738,22.132 117.641401,22.132 C117.062065,22.132 116.603736,21.9780015 116.266401,21.67 C115.929066,21.3693318 115.760401,20.980669 115.760401,20.504 C115.760401,20.0126642 115.947399,19.6240014 116.321401,19.338 C116.68807,19.0593319 117.186731,18.92 117.817401,18.92 L119.181401,18.92 L119.181401,18.678 C119.181401,18.3773318 119.097069,18.1426675 118.928401,17.974 C118.7524,17.8053325 118.499403,17.721 118.169401,17.721 C117.685399,17.721 117.20507,17.9703308 116.728401,18.469 L115.958401,17.556 C116.589071,16.8079963 117.381063,16.434 118.334401,16.434 Z M118.037401,21.043 C118.360069,21.043 118.6314,20.9403344 118.851401,20.735 C119.071402,20.536999 119.181401,20.2803349 119.181401,19.965 L119.181401,19.899 L118.015401,19.899 C117.509399,19.899 117.256401,20.0823315 117.256401,20.449 C117.256401,20.6323342 117.329734,20.7753328 117.476401,20.878 C117.615735,20.9880005 117.802733,21.043 118.037401,21.043 Z M124.448201,16.434 C124.983537,16.434 125.452866,16.5513322 125.856201,16.786 C126.259537,17.0280012 126.578533,17.3579979 126.813201,17.776 L125.779201,18.579 C125.4272,18.0509974 124.990871,17.787 124.470201,17.787 C124.052199,17.787 123.711203,17.9263319 123.447201,18.205 C123.175867,18.4910014 123.040201,18.8466645 123.040201,19.272 C123.040201,19.7046688 123.175867,20.0603319 123.447201,20.339 C123.711203,20.6250014 124.052199,20.768 124.470201,20.768 C124.976204,20.768 125.412533,20.5076693 125.779201,19.987 L126.813201,20.779 C126.578533,21.1970021 126.259537,21.5269988 125.856201,21.769 C125.445533,22.0110012 124.976204,22.132 124.448201,22.132 C123.634197,22.132 122.944871,21.8570027 122.380201,21.307 C121.815532,20.7569972 121.533201,20.0786707 121.533201,19.272 C121.533201,18.4726627 121.815532,17.7980027 122.380201,17.248 C122.944871,16.7053306 123.634197,16.434 124.448201,16.434 Z M132.652001,18.964 C132.652001,19.2280013 132.619002,19.4993319 132.553001,19.778 L128.725001,19.778 C128.820335,20.1226684 129.003667,20.3866657 129.275001,20.57 C129.539003,20.7606676 129.868999,20.856 130.265001,20.856 C130.800337,20.856 131.306332,20.6726685 131.783001,20.306 L132.399001,21.318 C131.753665,21.8606694 131.027672,22.132 130.221001,22.132 C129.362997,22.132 128.651671,21.8570027 128.087001,21.307 C127.522332,20.7643306 127.240001,20.0896707 127.240001,19.283 C127.240001,18.4836627 127.514999,17.8090027 128.065001,17.259 C128.607671,16.7089972 129.282331,16.434 130.089001,16.434 C130.844338,16.434 131.460332,16.6759976 131.937001,17.16 C132.41367,17.6440024 132.652001,18.2453297 132.652001,18.964 Z M130.034001,17.633 C129.718666,17.633 129.443669,17.731999 129.209001,17.93 C128.974334,18.128001 128.813002,18.395665 128.725001,18.733 L131.211001,18.733 C131.203668,18.395665 131.086336,18.128001 130.859001,17.93 C130.631667,17.731999 130.35667,17.633 130.034001,17.633 Z M136.664801,16.434 C137.434805,16.434 138.069132,16.701664 138.567801,17.237 C139.059137,17.7796694 139.304801,18.4616626 139.304801,19.283 C139.304801,20.1043374 139.059137,20.782664 138.567801,21.318 C138.069132,21.8606694 137.434805,22.132 136.664801,22.132 C135.894798,22.132 135.311803,21.8606694 134.915801,21.318 L134.915801,22 L133.551801,22 L133.551801,13.75 L135.036801,13.75 L135.036801,17.083 C135.42547,16.6503312 135.968131,16.434 136.664801,16.434 Z M136.389801,20.779 C136.793137,20.779 137.130467,20.6396681 137.401801,20.361 C137.665803,20.0896653 137.797801,19.7266689 137.797801,19.272 C137.797801,18.8246644 137.662136,18.4616681 137.390801,18.183 C137.119467,17.9116653 136.785803,17.776 136.389801,17.776 C136.008466,17.776 135.685803,17.904332 135.421801,18.161 C135.150467,18.4250013 135.014801,18.7989976 135.014801,19.283 C135.014801,19.7743358 135.150467,20.1446654 135.421801,20.394 C135.693136,20.6506679 136.0158,20.779 136.389801,20.779 Z M142.822602,16.434 C143.629272,16.434 144.318599,16.7053306 144.890602,17.248 C145.462604,17.7980027 145.748602,18.4726627 145.748602,19.272 C145.748602,20.0713373 145.462604,20.7459972 144.890602,21.296 C144.318599,21.8460027 143.625606,22.121 142.811602,22.121 C141.997597,22.121 141.311938,21.8460027 140.754602,21.296 C140.189932,20.7533306 139.907602,20.0786707 139.907602,19.272 C139.907602,18.4726627 140.189932,17.7980027 140.754602,17.248 C141.319271,16.7053306 142.008597,16.434 142.822602,16.434 Z M142.822602,17.787 C142.411933,17.787 142.074603,17.9263319 141.810602,18.205 C141.5466,18.4910014 141.414602,18.8503312 141.414602,19.283 C141.414602,19.7156688 141.5466,20.0676653 141.810602,20.339 C142.074603,20.6176681 142.411933,20.757 142.822602,20.757 C143.225937,20.757 143.563267,20.6176681 143.834602,20.339 C144.098603,20.0603319 144.230602,19.7083355 144.230602,19.283 C144.230602,18.8576645 144.098603,18.5020014 143.834602,18.216 C143.563267,17.9299986 143.225937,17.787 142.822602,17.787 Z M149.255402,16.434 C150.062072,16.434 150.751399,16.7053306 151.323402,17.248 C151.895404,17.7980027 152.181402,18.4726627 152.181402,19.272 C152.181402,20.0713373 151.895404,20.7459972 151.323402,21.296 C150.751399,21.8460027 150.058406,22.121 149.244402,22.121 C148.430398,22.121 147.744738,21.8460027 147.187402,21.296 C146.622732,20.7533306 146.340402,20.0786707 146.340402,19.272 C146.340402,18.4726627 146.622732,17.7980027 147.187402,17.248 C147.752071,16.7053306 148.441398,16.434 149.255402,16.434 Z M149.255402,17.787 C148.844733,17.787 148.507403,17.9263319 148.243402,18.205 C147.9794,18.4910014 147.847402,18.8503312 147.847402,19.283 C147.847402,19.7156688 147.9794,20.0676653 148.243402,20.339 C148.507403,20.6176681 148.844733,20.757 149.255402,20.757 C149.658737,20.757 149.996067,20.6176681 150.267402,20.339 C150.531403,20.0603319 150.663402,19.7083355 150.663402,19.283 C150.663402,18.8576645 150.531403,18.5020014 150.267402,18.216 C149.996067,17.9299986 149.658737,17.787 149.255402,17.787 Z M156.755202,22 L154.566202,18.997 L154.566202,22 L153.081202,22 L153.081202,13.75 L154.566202,13.75 L154.566202,18.887 L156.524202,16.555 L158.284202,16.555 L156.238202,18.964 L158.449202,22 L156.755202,22 Z M0,18.5 C0,8.28273213 8.28212817,0 18.5024345,0 L157.497566,0 C167.716178,0 176,8.28048563 176,18.5 C176,28.7172679 167.717872,37 157.497566,37 L18.5024345,37 C8.28382209,37 0,28.7195144 0,18.5 Z M20.4729901,3 C11.9274871,3 5,9.92748713 5,18.4729901 C5,27.0185545 11.9274871,33.9460416 20.4729901,33.9460416 C29.0184931,33.9460416 35.9459802,27.0185545 35.9459802,18.4729901 C35.9459802,9.92748713 29.0184931,3 20.4729901,3 Z" id="Combined-Shape"></path>
            </g>
        </g>
    </g>
</svg>