<?xml version="1.0" encoding="UTF-8"?>
<svg width="178px" height="39px" viewBox="0 0 178 39" version="1.1" xmlns="http://www.w3.org/2000/svg" xmlns:xlink="http://www.w3.org/1999/xlink">
    <!-- Generator: Sketch 41.2 (35397) - http://www.bohemiancoding.com/sketch -->
    <title>splash_button_facebooklogin</title>
    <desc>Created with Sketch.</desc>
    <defs></defs>
    <g id="Page-1" stroke="none" stroke-width="1" fill="none" fill-rule="evenodd">
        <g id="Splash-Page" transform="translate(-423.000000, -489.000000)">
            <g id="splash_button_facebooklogin" transform="translate(424.000000, 490.000000)">
                <text id="Log-in-with-Facebook" font-family="CeraPRO-Bold, Cera PRO" font-size="11" font-weight="bold" line-spacing="20" letter-spacing="-0.255199909" fill="#FFFFFF">
                    <tspan x="52" y="15">Log in with Facebook</tspan>
                </text>
                <rect id="Rectangle-2" stroke="#FFFFFF" x="0" y="0" width="176" height="37" rx="18.5"></rect>
                <path d="M24.1425921,12.9330139 C24.1425921,13.1642554 23.9554257,13.3517287 23.7241842,13.3516673 C23.3933129,13.3516059 22.9626891,13.3511149 22.6940634,13.3511149 C22.6408416,13.3511149 21.7568812,13.302497 21.7568812,14.1520198 C21.7622218,14.4990356 21.7568812,15.6939168 21.7568812,15.6939168 L23.7023307,15.6939168 C23.9454198,15.6939168 24.1374356,15.900297 24.1198792,16.1427723 L23.986303,17.9915386 C23.9704653,18.2104416 23.7882099,18.3799901 23.5687545,18.3799901 L21.8128653,18.3799901 L21.8128653,25.8732119 C21.8128653,26.1044535 21.6254535,26.2918653 21.3942119,26.2918653 L18.9811842,26.2918653 C18.7499426,26.2918653 18.5625307,26.1044535 18.5625307,25.8732119 L18.5625307,18.4318614 L17.2123426,18.4318614 C16.981101,18.4318614 16.7936277,18.2444495 16.7936277,18.0132079 L16.7936277,16.1202436 C16.7936277,15.889002 16.981101,15.7015901 17.2123426,15.7015901 L18.5094317,15.7015901 C18.5094317,14.8941782 18.5166752,14.1768198 18.5094317,13.4277248 C18.5094317,11.2778594 20.1590614,10.6541149 21.6421505,10.6541149 L24.1413644,10.6541149 L24.1425921,10.6541149 L24.1425921,12.9330139 Z M20.4729901,3 C11.9274871,3 5,9.92748713 5,18.4729901 C5,27.0185545 11.9274871,33.9460416 20.4729901,33.9460416 C29.0184931,33.9460416 35.9459802,27.0185545 35.9459802,18.4729901 C35.9459802,9.92748713 29.0184931,3 20.4729901,3 L20.4729901,3 Z" id="Fill-1" fill="#FFFFFF"></path>
            </g>
        </g>
    </g>
</svg>
